<?xml version="1.0" standalone="no"?>
<!DOCTYPE svg PUBLIC "-//W3C//DTD SVG 1.1//EN" "http://www.w3.org/Graphics/SVG/1.1/DTD/svg11.dtd" >
<svg>
<metadata>
Created by FontForge 20090622 at Fri Jun 17 13:09:12 2016
 By deploy user
Copyright (c) 2013 by Frank Hemmekam. All rights reserved.
</metadata>
<defs>
<font id="BaronNeueBold" horiz-adv-x="559" >
  <font-face 
    font-family="Baron Neue Bold"
    font-weight="700"
    font-stretch="normal"
    units-per-em="1000"
    panose-1="2 11 0 0 0 0 0 0 0 0"
    ascent="750"
    descent="-250"
    x-height="694"
    cap-height="700"
    bbox="-39.4 -241 1069 985"
    underline-thickness="50"
    underline-position="-50"
    unicode-range="U+0020-U+25CA"
  />
<missing-glyph horiz-adv-x="440" 
 />
    <glyph glyph-name=".notdef" horiz-adv-x="440" 
 />
    <glyph glyph-name=".null" horiz-adv-x="0" 
 />
    <glyph glyph-name="nonmarkingreturn" horiz-adv-x="333" 
 />
    <glyph glyph-name="space" unicode=" " horiz-adv-x="345" 
 />
    <glyph glyph-name="exclam" unicode="!" horiz-adv-x="276" 
d="M79 700h114q10 0 10 -8v-485q0 -8 -10 -8h-114q-10 0 -10 8v485q0 8 10 8zM135 138q32 0 54 -21.5t22 -51.5t-22 -51.5t-54 -21.5q-30 0 -52 21.5t-22 51.5q0 29 22 51t52 22z" />
    <glyph glyph-name="quotedbl" unicode="&#x22;" horiz-adv-x="318" 
d="M22 474v218q0 8 10 8h94q10 0 10 -8v-218q0 -8 -10 -8h-94q-10 0 -10 8zM179 474v218q0 8 10 8h93q10 0 10 -8v-218q0 -8 -10 -8h-93q-10 0 -10 8z" />
    <glyph glyph-name="numbersign" unicode="#" horiz-adv-x="654" 
d="M587 416h-77q-44 -153 -46 -159h74q5 0 8.5 -3t1.5 -7l-28 -99q-2 -6 -10 -6h-78l-39 -137q-2 -6 -9 -6h-104q-12 0 -10 10l38 133h-94l-38 -137q-2 -6 -10 -6h-103q-5 0 -7.5 3t-1.5 7l36 133h-83q-5 0 -7.5 3t-1.5 7l28 99q2 6 10 6h86q3 11 46 159h-84q-5 0 -8.5 3
t-1.5 7l27 97q2 6 10 6h87l47 165q2 6 10 6h103q5 0 8.5 -3t1.5 -7l-46 -161h94l47 165q2 6 10 6h103q5 0 8.5 -3t1.5 -7l-46 -161h74q5 0 8.5 -3t1.5 -7l-27 -97q-2 -6 -10 -6zM346 244l54 185h-114l-54 -185h114z" />
    <glyph glyph-name="dollar" unicode="$" horiz-adv-x="543" 
d="M329 778v-77q70 -18 114 -70.5t45 -125.5q0 -9 -10 -9h-112q-10 0 -10 9q-1 36 -25.5 55t-61.5 19q-39 0 -64 -22.5t-25 -65.5q0 -36 26 -57t63 -21q54 0 104 -23q56 -27 86.5 -77.5t30.5 -113.5q0 -80 -45 -132.5t-116 -69.5v-72q0 -7 -10 -7h-95q-10 0 -10 7v72
q-75 15 -120.5 66.5t-46.5 133.5q0 7 10 7h113q10 0 10 -7q1 -37 26.5 -57t62.5 -20t63 21.5t26 57.5q0 37 -28 61.5t-61 26.5q-55 0 -106 23q-116 55 -116 181q0 82 47.5 137.5t119.5 72.5v77q0 8 10 8h95q10 0 10 -8z" />
    <glyph glyph-name="percent" unicode="%" horiz-adv-x="664" 
d="M165 413q-62 0 -106.5 43.5t-44.5 104.5t44.5 105t106.5 44t106.5 -44t44.5 -105t-44.5 -104.5t-106.5 -43.5zM165 619q-23 0 -39 -16.5t-16 -41.5q0 -24 16 -40t39 -16t39 16t16 40q0 25 -16 41.5t-39 16.5zM488 -9q-63 0 -107.5 44t-44.5 106t44.5 106t107.5 44
q64 0 108 -44t44 -106t-44 -106t-108 -44zM488 198q-23 0 -39 -16.5t-16 -40.5t16 -40.5t39 -16.5t39.5 16.5t16.5 40.5t-16.5 40.5t-39.5 16.5zM112 2h-108q-7 0 -9.5 4t1.5 9l531 682q3 3 8 3h108q7 0 9.5 -4t-1.5 -9l-531 -682q-3 -3 -8 -3z" />
    <glyph glyph-name="ampersand" unicode="&#x26;" horiz-adv-x="653" 
d="M626 83l-82 -81q-6 -5 -13 0l-74 73q-74 -83 -183 -83q-132 0 -201 96q-49 74 -37.5 158t78.5 149q-57 47 -57 131q0 73 53 126t127 53q75 0 128 -52.5t53 -126.5q0 -43 -22.5 -83t-58.5 -67l90 -94v120q0 8 10 8h172q10 0 10 -8v-93q0 -8 -10 -8h-76v-60q0 -19 -7 -44
l-1 -2l101 -100q6 -6 0 -12zM237 588q-25 0 -42 -18t-17 -44t17 -44.5t42 -18.5t42.5 18.5t17.5 44.5t-17.5 44t-42.5 18zM369 166l-156 152q-43 -34 -48.5 -81t27 -80.5t87.5 -33.5q53 0 90 43z" />
    <glyph glyph-name="quotesingle" unicode="'" horiz-adv-x="166" 
d="M21 474v218q0 8 10 8h104q10 0 10 -8v-218q0 -8 -10 -8h-104q-10 0 -10 8z" />
    <glyph glyph-name="parenleft" unicode="(" horiz-adv-x="311" 
d="M149 0l-9 4q-88 165 -88 348q0 178 89 343q2 4 9 4h132q6 0 8.5 -3.5t-1.5 -8.5q-104 -160 -104 -334q0 -183 103 -341q4 -4 1.5 -8t-8.5 -4h-132z" />
    <glyph glyph-name="parenright" unicode=")" horiz-adv-x="308" 
d="M158 699l9 -4q43 -82 65 -169q23 -88 23 -178q0 -177 -89 -344q-2 -4 -9 -4h-132q-7 0 -9.5 4t1.5 8q105 159 105 334q0 71 -20 148q-26 105 -84 193q-4 5 -1.5 8.5t9.5 3.5h132z" />
    <glyph glyph-name="asterisk" unicode="*" horiz-adv-x="383" 
d="M346 568v-50q0 -8 -10 -8h-68l56 -55q8 -6 0 -12l-35 -34q-7 -5 -14 0l-52 51v-66q0 -8 -10 -8h-50q-9 0 -9 8v66l-53 -51q-7 -5 -14 0l-35 34q-8 6 0 12l56 55h-69q-10 0 -10 8v50q0 8 10 8h69l-56 56q-3 2 -3 5.5t3 5.5l35 35q7 5 14 0l53 -52v66q0 8 9 8h50
q10 0 10 -8v-66l52 52q7 5 14 0l35 -35q3 -2 3 -5.5t-3 -5.5l-56 -56h68q10 0 10 -8z" />
    <glyph glyph-name="plus" unicode="+" horiz-adv-x="467" 
d="M429 399v-99q0 -8 -10 -8h-139v-142q0 -8 -10 -8h-99q-10 0 -10 8v142h-132q-10 0 -10 8v99q0 8 10 8h132v140q0 8 10 8h99q10 0 10 -8v-140h139q10 0 10 -8z" />
    <glyph glyph-name="comma" unicode="," horiz-adv-x="186" 
d="M81 129q40 0 59.5 -21.5t19.5 -55.5q0 -39 -22 -81.5t-52 -61.5q-5 -3 -10 -0.5t-5 7.5v76q-25 3 -42.5 23t-17.5 46q0 28 20.5 48t49.5 20z" />
    <glyph glyph-name="hyphen" unicode="-" horiz-adv-x="443" 
d="M396 404v-104q0 -8 -9 -8h-344q-10 0 -10 8v104q0 8 10 8h344q9 0 9 -8z" />
    <glyph glyph-name="period" unicode="." horiz-adv-x="180" 
d="M87 133q30 0 51 -20.5t21 -49.5t-20.5 -49t-51.5 -20q-29 0 -49.5 20.5t-20.5 48.5q0 29 20.5 49.5t49.5 20.5z" />
    <glyph glyph-name="slash" unicode="/" horiz-adv-x="452" 
d="M320 700h117q13 0 8 -11l-320 -685q-3 -5 -9 -5h-114q-5 0 -7.5 3.5t-0.5 7.5l317 685q3 5 9 5z" />
    <glyph glyph-name="zero" unicode="0" horiz-adv-x="565" 
d="M488 192q0 -95 -62.5 -148.5t-146.5 -53.5q-85 0 -147 53.5t-62 148.5v316q0 94 62 148t147 54q84 0 146.5 -54t62.5 -148v-316zM354 516q0 36 -22.5 56t-52.5 20q-31 0 -53 -20t-22 -56v-329q0 -36 22.5 -56.5t52.5 -20.5q31 0 53 20.5t22 56.5v329z" />
    <glyph glyph-name="one" unicode="1" horiz-adv-x="332" 
d="M260 692v-684q0 -8 -9 -8h-115q-9 0 -9 8v542q-13 -4 -89 -33q-9 -2 -12 5l-38 82q-4 7 4 10l159 86h100q9 0 9 -8z" />
    <glyph glyph-name="two" unicode="2" horiz-adv-x="490" 
d="M447 122v-114q0 -8 -10 -8h-399q-10 0 -10 8v105l247 341q24 32 24 63q0 27 -18 44.5t-44 17.5q-30 0 -52.5 -19t-22.5 -56q0 -7 -10 -7h-107q-10 0 -10 7q0 91 51 148t151 57q80 0 140.5 -53t60.5 -132q0 -67 -50 -136l-195 -258h244q10 0 10 -8z" />
    <glyph glyph-name="three" unicode="3" horiz-adv-x="493" 
d="M130 337l139 237h-215q-10 0 -10 8v110q0 8 10 8h402q6 0 9 -4t0 -8l-148 -260q69 -20 107 -78t38 -142q0 -108 -65.5 -163t-160.5 -55q-89 0 -152 57.5t-63 149.5q0 8 10 8h113q9 0 9 -8q0 -35 25 -56.5t58 -21.5q43 0 67 29t24 68q0 46 -25.5 75.5t-68.5 33.5h-94
q-6 0 -9 4t0 8z" />
    <glyph glyph-name="four" unicode="4" horiz-adv-x="515" 
d="M440 692v-684q0 -8 -10 -8h-114q-9 0 -9 8v199h-273q-10 0 -10 8v110l285 372q3 3 7 3h114q10 0 10 -8zM308 513l-151 -190h151v190z" />
    <glyph glyph-name="five" unicode="5" horiz-adv-x="501" 
d="M244 -7q-91 0 -150 54.5t-59 152.5q0 8 10 8h113q10 0 10 -8q0 -38 21.5 -58t54.5 -20q40 0 63 28t23 66q0 47 -21.5 77t-64.5 33h-194q-10 0 -10 8v358q0 8 10 8h367q10 0 10 -8v-106q0 -8 -10 -8h-243v-135h70q110 0 164.5 -62t54.5 -172q0 -98 -64.5 -157t-154.5 -59z
" />
    <glyph glyph-name="six" unicode="6" horiz-adv-x="472" 
d="M228 -8q-91 0 -148 61t-57 149q0 37 10 71l148 422q2 5 8 5h122q5 0 7 -3.5t1 -7.5l-101 -287q9 3 36 3q82 0 133 -61.5t51 -144.5q0 -85 -62 -146t-148 -61zM229 284q-33 0 -57.5 -25.5t-24.5 -60.5t24 -60t58 -25q35 0 59.5 25t24.5 60t-25 60.5t-59 25.5z" />
    <glyph glyph-name="seven" unicode="7" horiz-adv-x="436" 
d="M42 11l212 563h-234q-10 0 -10 8v110q0 8 10 8h409q5 0 8 -3.5t1 -7.5l-258 -684q-2 -5 -8 -5h-122q-5 0 -7.5 3.5t-0.5 7.5z" />
    <glyph glyph-name="eight" unicode="8" horiz-adv-x="487" 
d="M449 497q0 -42 -20 -82.5t-53 -64.5q34 -28 53.5 -67.5t19.5 -79.5q0 -101 -63 -157t-148 -56t-147 56t-62 157q0 40 19.5 81t49.5 67q-31 27 -50 66.5t-19 79.5q0 99 62.5 155.5t146.5 56.5q85 0 148 -56.5t63 -155.5zM157 497q0 -35 23.5 -59.5t57.5 -24.5t58 24.5
t24 59.5q0 42 -24.5 65.5t-57.5 23.5t-57 -23.5t-24 -65.5zM160 203q0 -41 23 -64t55 -23t55.5 23t23.5 64q0 34 -23 59.5t-56 25.5q-32 0 -55 -25.5t-23 -59.5z" />
    <glyph glyph-name="nine" unicode="9" horiz-adv-x="486" 
d="M233 708q91 0 148.5 -61t57.5 -149q0 -35 -11 -72l-147 -421q-2 -5 -9 -5h-121q-13 0 -9 11l102 287q-10 -3 -36 -3q-82 0 -133 61.5t-51 144.5q0 85 61.5 146t147.5 61zM232 418q33 0 57 24.5t24 59.5q0 34 -24 58.5t-57 24.5q-34 0 -57.5 -24t-23.5 -59t23.5 -59.5
t57.5 -24.5z" />
    <glyph glyph-name="colon" unicode=":" horiz-adv-x="180" 
d="M87 133q30 0 51 -20.5t21 -49.5t-20.5 -49t-51.5 -20q-29 0 -49.5 20.5t-20.5 48.5q0 29 20.5 49.5t49.5 20.5zM87 418q30 0 51 -20.5t21 -49.5t-20.5 -49t-51.5 -20q-29 0 -49.5 20.5t-20.5 48.5t20.5 49t49.5 21z" />
    <glyph glyph-name="semicolon" unicode=";" horiz-adv-x="181" 
d="M87 418q30 0 51 -20.5t21 -49.5t-20.5 -49t-51.5 -20q-29 0 -49.5 20.5t-20.5 48.5t20.5 49t49.5 21zM81 129q40 0 59.5 -21.5t19.5 -55.5q0 -39 -22 -81.5t-52 -61.5q-5 -3 -10 -0.5t-5 7.5v76q-25 3 -42.5 23t-17.5 46q0 28 20.5 48t49.5 20z" />
    <glyph glyph-name="less" unicode="&#x3c;" horiz-adv-x="349" 
d="M244 576l66 -68q7 -5 0 -10l-147 -156l147 -153q7 -5 0 -11l-66 -69q-6 -3 -13 0l-215 227q-8 6 0 12l215 228q7 5 13 0z" />
    <glyph glyph-name="equal" unicode="=" horiz-adv-x="427" 
d="M390 427v-98q0 -7 -9 -7h-342q-10 0 -10 7v98q0 8 10 8h342q9 0 9 -8zM390 254v-99q0 -7 -9 -7h-342q-10 0 -10 7v99q0 8 10 8h342q9 0 9 -8z" />
    <glyph glyph-name="greater" unicode="&#x3e;" horiz-adv-x="346" 
d="M32 508l66 68q7 5 14 0l215 -228q8 -6 0 -12l-215 -227q-7 -3 -14 0l-66 69q-7 6 0 11l147 153l-147 156q-7 5 0 10z" />
    <glyph glyph-name="question" unicode="?" horiz-adv-x="490" 
d="M230 710q95 0 155.5 -56t60.5 -158q0 -62 -46.5 -114t-112.5 -71v-114q0 -7 -10 -7h-103q-10 0 -10 7v207q0 8 11 8q73 -5 105 21.5t32 62.5q0 84 -82 84q-33 0 -54.5 -18t-21.5 -49q0 -8 -10 -8h-113q-10 0 -10 8q0 85 60.5 141t148.5 56zM153 67q0 33 22.5 52.5
t53.5 19.5t53 -19t22 -53q0 -33 -23 -52t-54 -19q-30 0 -52 19t-22 52z" />
    <glyph glyph-name="at" unicode="@" horiz-adv-x="895" 
d="M346 529q74 0 127.5 -53t53.5 -126q0 -44 -14 -69h63v69q0 107 -67.5 171t-162.5 64q-107 0 -170.5 -69t-63.5 -166q0 -96 64 -166t170 -70h342q10 0 10 -8v-106q0 -8 -10 -8h-342q-161 0 -261.5 104.5t-100.5 253.5q0 150 100.5 255t261.5 105q152 0 257 -98t105 -262
v-171q0 -8 -10 -8h-352q-76 0 -128.5 52.5t-52.5 126.5t53 126.5t128 52.5zM285 350q0 -26 18 -44.5t43 -18.5t43 18.5t18 44.5t-18 44.5t-43 18.5t-43 -18.5t-18 -44.5z" />
    <glyph glyph-name="A" unicode="A" horiz-adv-x="570" 
d="M427 5l-29 74h-227l-27 -74q-2 -5 -9 -5h-123q-14 0 -9 11l273 704q2 5 9 5t9 -5l273 -704q5 -11 -8 -11h-124q-6 0 -8 5zM285 407l-71 -210h141z" />
    <glyph glyph-name="B" unicode="B" horiz-adv-x="603" 
d="M546 500q0 -110 -97 -150q31 -11 53.5 -30t32.5 -38t15 -37t6 -29v-12q0 -55 -22 -95.5t-50.5 -60.5t-68 -32t-62 -14t-44.5 -2h-228q-10 0 -10 8v684q0 8 10 8h228h13.5t33 -3.5t47 -10.5t50 -21.5t47 -35t33 -54t13.5 -75.5zM204 575v-160h105q4 0 11 0.5t25 4.5
t31.5 11.5t24.5 23t11 37.5q0 37 -26 58t-52 23l-25 2h-105zM309 128q27 0 49.5 5t43 24t20.5 50q0 37 -28 56t-56 20l-29 1h-105v-156h105z" />
    <glyph glyph-name="C" unicode="C" horiz-adv-x="694" 
d="M401 120q89 0 154 65q7 5 14 0l80 -81q8 -6 0 -12q-100 -102 -248 -102q-149 0 -251 99.5t-102 260.5q0 158 99 259t254 101q148 0 248 -103q8 -6 0 -12l-80 -80q-7 -5 -14 0q-65 65 -154 65q-100 0 -158.5 -64t-58.5 -166q0 -104 62 -167t155 -63z" />
    <glyph glyph-name="D" unicode="D" horiz-adv-x="662" 
d="M81 700h114q41 0 77 -3t79 -12t77.5 -24.5t68.5 -42.5t57 -62.5t37 -88t14 -117.5q0 -86 -26.5 -151t-67 -102t-97.5 -59.5t-108.5 -30t-110.5 -7.5h-114q-10 0 -10 8v684q0 8 10 8zM205 572v-443q32 -2 61 0t68.5 14t67.5 34.5t48 67t20 105.5q0 119 -72 173.5
t-193 48.5z" />
    <glyph glyph-name="E" unicode="E" horiz-adv-x="588" 
d="M528 573h-323v-158h275q9 0 9 -8v-111q0 -8 -9 -8h-275v-158h332q10 0 10 -8v-114q0 -8 -10 -8h-456q-10 0 -10 8v684q0 8 10 8h447q10 0 10 -8v-111q0 -8 -10 -8z" />
    <glyph glyph-name="F" unicode="F" horiz-adv-x="580" 
d="M537 570h-332v-158h275q9 0 9 -8v-111q0 -8 -9 -8h-275v-277q0 -8 -10 -8h-114q-10 0 -10 8v684q0 8 10 8h456q10 0 10 -8v-114q0 -8 -10 -8z" />
    <glyph glyph-name="G" unicode="G" horiz-adv-x="773" 
d="M451 405h238q9 0 9 -8v-392q0 -8 -9 -8h-100q-10 0 -10 7l-4 65q-69 -79 -187 -79q-146 0 -241.5 96.5t-95.5 263.5q0 154 102.5 257t249.5 103q148 0 248 -103q8 -6 0 -12l-80 -80q-7 -6 -13 0q-65 65 -155 65q-93 0 -155.5 -62t-62.5 -168q0 -115 61 -172.5t157 -57.5
q94 0 161 73v91h-113q-10 0 -10 7v106q0 8 10 8z" />
    <glyph glyph-name="H" unicode="H" horiz-adv-x="686" 
d="M482 700h114q10 0 10 -8v-684q0 -8 -10 -8h-114q-10 0 -10 8v277h-265v-277q0 -8 -10 -8h-114q-10 0 -10 8v684q0 8 10 8h114q10 0 10 -8v-276h265v276q0 8 10 8z" />
    <glyph glyph-name="I" unicode="I" horiz-adv-x="350" 
d="M305 580h-66v-460h70q10 0 10 -8v-104q0 -8 -10 -8h-275q-10 0 -10 8v104q0 8 10 8h71v460h-67q-10 0 -10 8v104q0 8 10 8h267q10 0 10 -8v-104q0 -8 -10 -8z" />
    <glyph glyph-name="J" unicode="J" horiz-adv-x="406" 
d="M84 701h238q9 0 9 -8v-486q0 -58 -21.5 -100.5t-52.5 -62t-62 -31t-53 -12.5l-21 -1h-86q-10 0 -10 8v114q0 8 10 8h86q22 0 37.5 8t23 19t11.5 22.5t5 19.5v8v374h-114q-10 0 -10 8v104q0 8 10 8z" />
    <glyph glyph-name="K" unicode="K" horiz-adv-x="646" 
d="M627 687l-279 -343l281 -331q4 -5 1.5 -9t-9.5 -4h-150q-5 0 -8 3l-204 252q-3 -3 -23 -26.5t-31 -34.5v-186q0 -8 -9 -8h-115q-10 0 -10 8v684q0 8 10 8h115q9 0 9 -8v-318l263 323q3 3 8 3h143q7 0 9.5 -4t-1.5 -9z" />
    <glyph glyph-name="L" unicode="L" horiz-adv-x="501" 
d="M204 130h244q10 0 10 -8v-114q0 -8 -10 -8h-368q-10 0 -10 8v684q0 8 10 8h115q9 0 9 -8v-562z" />
    <glyph glyph-name="M" unicode="M" horiz-adv-x="916" 
d="M833 693v-685q0 -8 -10 -8h-114q-10 0 -10 8v384l-178 -359q-3 -5 -8 -5h-108q-7 0 -9 5l-190 368v-393q0 -8 -10 -8h-115q-9 0 -9 8v685q0 8 9 8h117q6 0 9 -5l251 -514l240 514q2 5 9 5h116q10 0 10 -8z" />
    <glyph glyph-name="N" unicode="N" horiz-adv-x="742" 
d="M661 692v-684q0 -8 -10 -8h-115q-6 0 -8 3l-322 461v-456q0 -8 -10 -8h-115q-9 0 -9 8v684q0 8 9 8h116q7 0 8 -3l323 -461v456q0 8 10 8h113q10 0 10 -8z" />
    <glyph glyph-name="O" unicode="O" horiz-adv-x="638" 
d="M313 186q-109 0 -186.5 77t-77.5 185q0 107 77.5 184.5t186.5 77.5t186.5 -77.5t77.5 -184.5q0 -108 -77.5 -185t-186.5 -77zM313 581q-54 0 -92.5 -39t-38.5 -94q0 -56 38.5 -94.5t92.5 -38.5q55 0 93 38.5t38 94.5t-38 94.5t-93 38.5zM546 121v-113q0 -8 -10 -8h-451
q-10 0 -10 8v113q0 8 10 8h451q10 0 10 -8z" />
    <glyph glyph-name="P" unicode="P" horiz-adv-x="583" 
d="M309 700q10 0 26 -1t56.5 -12.5t72 -31t57 -62t25.5 -100.5q0 -42 -13 -76.5t-34 -55.5t-46.5 -37t-50.5 -23t-46 -11t-34 -4l-13 -1h-104v-277q0 -8 -10 -8h-114q-10 0 -10 8v399q0 8 10 8h93l-103 162v115q0 8 10 8h228zM309 570h-88l97 -154q34 0 64.5 19.5t30.5 57.5
q0 77 -104 77z" />
    <glyph glyph-name="Q" unicode="Q" horiz-adv-x="822" 
d="M697 149l68 -73q3 -2 3 -6t-3 -5l-83 -79q-7 -5 -14 0l-65 68q-90 -63 -200 -63q-148 0 -250.5 103.5t-102.5 257.5q0 149 100 253.5t253 104.5t253 -105t100 -253q0 -114 -59 -203zM622 352q0 92 -64.5 160t-154.5 68q-43 0 -86 -18l284 -313q21 48 21 103zM403 121
q55 0 110 31l-296 325q-33 -56 -33 -125q0 -101 63.5 -166t155.5 -65z" />
    <glyph glyph-name="R" unicode="R" horiz-adv-x="612" 
d="M574 0h-134q-7 0 -9 4l-176 281h-49v-277q0 -8 -10 -8h-114q-10 0 -10 8v399q0 8 10 8h93l-103 162v115q0 8 10 8h228q5 0 13.5 -0.5t33.5 -4.5t47.5 -11t49.5 -22.5t47 -36.5t33.5 -55.5t13.5 -76.5q0 -148 -147 -193l180 -288q3 -4 0.5 -8t-7.5 -4zM226 570l97 -154
q36 1 63.5 19t27.5 58q0 77 -104 77h-84z" />
    <glyph glyph-name="S" unicode="S" horiz-adv-x="543" 
d="M270 -10q-97 2 -160 56.5t-64 150.5q0 8 10 8h114q10 0 10 -8q1 -37 27 -57t63 -20t63.5 22.5t26.5 57.5q0 37 -28 61t-62 26q-55 0 -107 24q-117 55 -117 182q0 97 66.5 157t157.5 60q93 0 156.5 -57.5t64.5 -147.5q0 -7 -10 -7h-113q-10 0 -10 7q-1 37 -26 56t-62 19
q-39 0 -64.5 -22.5t-25.5 -64.5q0 -37 26.5 -58t63.5 -21q55 0 106 -24q56 -26 86.5 -76t30.5 -114q0 -97 -66 -153.5t-157 -56.5z" />
    <glyph glyph-name="T" unicode="T" horiz-adv-x="448" 
d="M433 692v-104q0 -8 -10 -8h-134v-572q0 -8 -10 -8h-113q-10 0 -10 8v572h-134q-10 0 -10 8v104q0 8 10 8h401q10 0 10 -8z" />
    <glyph glyph-name="U" unicode="U" horiz-adv-x="740" 
d="M81 700h569q10 0 10 -8v-409q0 -73 -35 -143q-37 -72 -103.5 -111t-155.5 -39t-156 38.5t-103 111.5q-35 70 -35 143v409q0 8 9 8zM504 196q23 44 23 88v296h-322v-297q1 -45 23 -87q40 -76 138 -76t138 76z" />
    <glyph glyph-name="V" unicode="V" horiz-adv-x="575" 
d="M14 700h547q5 0 7.5 -3.5t0.5 -7.5l-272 -712q-2 -5 -9 -5t-9 5l-274 712q-2 4 1 7.5t8 3.5zM186 576l102 -280l101 280h-203z" />
    <glyph glyph-name="W" unicode="W" horiz-adv-x="1014" 
d="M1004 689l-274 -711q-2 -5 -8.5 -5t-8.5 5l-206 539l-205 -539q-2 -5 -9 -5t-8 5l-273 711q-2 4 1 7.5t8 3.5h123q7 0 9 -5l140 -379l144 379q2 5 9 5h123q7 0 9 -5l144 -379l141 379q2 5 9 5h123q6 0 8.5 -3t0.5 -8z" />
    <glyph glyph-name="X" unicode="X" horiz-adv-x="674" 
d="M13 13l240 337l-240 337q-4 5 -1.5 9t8.5 4h140q6 0 8 -3l167 -233l166 233q1 3 8 3h140q7 0 9.5 -4t-1.5 -9l-241 -337l241 -337q4 -5 1.5 -9t-9.5 -4h-140q-7 0 -8 3l-166 233l-167 -233q-2 -3 -8 -3h-140q-6 0 -8.5 4t1.5 9z" />
    <glyph glyph-name="Y" unicode="Y" horiz-adv-x="645" 
d="M492 700h140q7 0 9.5 -4t-1.5 -9l-255 -358v-321q0 -8 -10 -8h-114q-10 0 -10 8v321l-255 358q-4 5 -1.5 9t9.5 4h139q7 0 8 -3l167 -233l167 233q1 3 7 3z" />
    <glyph glyph-name="Z" unicode="Z" horiz-adv-x="475" 
d="M443 122v-114q0 -8 -10 -8h-398q-6 0 -8.5 3t-0.5 8l224 559h-216q-10 0 -10 8v114q0 8 10 8h398q14 0 9 -11l-224 -559h216q10 0 10 -8z" />
    <glyph glyph-name="bracketleft" unicode="[" horiz-adv-x="344" 
d="M78 700h228q10 0 10 -8v-114q0 -8 -10 -8h-103v-440h103q10 0 10 -8v-114q0 -8 -10 -8h-228q-9 0 -9 8v684q0 8 9 8z" />
    <glyph glyph-name="backslash" unicode="\" horiz-adv-x="454" 
d="M128 695l317 -685q5 -11 -8 -11h-117q-6 0 -9 5l-317 685q-2 4 0.5 7.5t7.5 3.5h117q7 0 9 -5z" />
    <glyph glyph-name="bracketright" unicode="]" horiz-adv-x="352" 
d="M278 692v-684q0 -8 -9 -8h-228q-10 0 -10 8v114q0 8 10 8h104v440h-104q-10 0 -10 8v114q0 8 10 8h228q9 0 9 -8z" />
    <glyph glyph-name="asciicircum" unicode="^" horiz-adv-x="594" 
d="M430 487l-64 -60q-7 -5 -14 0l-139 134l-140 -134q-7 -5 -14 0l-63 60q-8 6 0 12l210 199q7 6 13 0l211 -199q8 -6 0 -12z" />
    <glyph glyph-name="underscore" unicode="_" horiz-adv-x="539" 
d="M504 7v-94q0 -8 -10 -8h-452q-10 0 -10 8v94q0 8 10 8h452q10 0 10 -8z" />
    <glyph glyph-name="grave" unicode="`" horiz-adv-x="265" 
d="M256 618l-47 -79q-5 -7 -14 -3l-180 98q-10 2 -4 10l52 83q5 7 14 3l175 -101q9 -4 4 -11z" />
    <glyph glyph-name="a" unicode="a" horiz-adv-x="571" 
d="M427 5l-29 74h-227l-27 -74q-2 -5 -9 -5h-123q-14 0 -9 11l273 704q2 5 9 5t9 -5l273 -704q5 -11 -8 -11h-124q-6 0 -8 5zM285 407l-71 -210h141z" />
    <glyph glyph-name="b" unicode="b" horiz-adv-x="603" 
d="M543 502q0 -107 -96 -146q31 -11 53 -30.5t31.5 -40t15 -39.5t5.5 -31v-12q0 -55 -21.5 -95.5t-50 -60t-67.5 -31.5t-61.5 -14t-44.5 -2h-226q-9 0 -9 8v684q0 8 9 8h226h13.5t33 -3.5t47 -10t49.5 -21t46.5 -35t33 -53.5t13.5 -75zM204 572v-160h103q11 0 24.5 2.5
t33 10t32.5 26t13 44.5q0 37 -26 56t-52 20l-25 1h-103zM307 128q44 0 78.5 17.5t34.5 61.5q0 83 -113 83h-103v-162h103z" />
    <glyph glyph-name="c" unicode="c" horiz-adv-x="694" 
d="M399 119q89 0 153 64q7 5 14 0l79 -80q8 -6 0 -12q-101 -101 -246 -101q-148 0 -249 98.5t-101 258.5q0 157 98.5 260t251.5 103q147 0 246 -101q8 -6 0 -12l-79 -79q-7 -5 -14 0q-66 64 -153 64q-98 0 -156.5 -66.5t-58.5 -168.5q0 -103 61.5 -165.5t153.5 -62.5z" />
    <glyph glyph-name="d" unicode="d" horiz-adv-x="662" 
d="M82 700h113q406 0 406 -348q0 -85 -26 -150t-66.5 -102.5t-96.5 -61t-107.5 -31t-109.5 -7.5h-113q-10 0 -10 8v684q0 8 10 8zM205 576v-451q31 -1 60.5 1.5t68 15.5t66.5 36t48 68t20 106q0 130 -69.5 180.5t-193.5 43.5z" />
    <glyph glyph-name="e" unicode="e" horiz-adv-x="588" 
d="M534 573h-330v-162h273q9 0 9 -8v-109q0 -8 -9 -8h-273v-160h330q10 0 10 -8v-110q0 -8 -10 -8h-453q-9 0 -9 8v684q0 8 9 8h453q10 0 10 -8v-111q0 -8 -10 -8z" />
    <glyph glyph-name="f" unicode="f" horiz-adv-x="580" 
d="M534 565h-330v-154h273q9 0 9 -8v-112q0 -8 -9 -8h-273v-275q0 -8 -9 -8h-114q-9 0 -9 8v678q0 8 9 8h453q10 0 10 -8v-113q0 -8 -10 -8z" />
    <glyph glyph-name="g" unicode="g" horiz-adv-x="773" 
d="M393 405h295q10 0 10 -8v-391q0 -8 -10 -8h-100q-9 0 -9 7l-4 61q-77 -77 -186 -77q-146 0 -241.5 96.5t-95.5 264.5q0 154 102 257t249 103q148 0 248 -102q8 -6 0 -12l-80 -80q-7 -5 -14 0q-65 65 -154 65q-93 0 -155 -62.5t-62 -168.5q0 -116 60.5 -173.5t156.5 -57.5
q97 0 164 73v96h-174q-10 0 -10 8v101q0 8 10 8z" />
    <glyph glyph-name="h" unicode="h" horiz-adv-x="686" 
d="M479 700h114q9 0 9 -8v-684q0 -8 -9 -8h-114q-10 0 -10 8v284h-262v-284q0 -8 -10 -8h-113q-10 0 -10 8v684q0 8 10 8h113q10 0 10 -8v-273h262v273q0 8 10 8z" />
    <glyph glyph-name="i" unicode="i" horiz-adv-x="280" 
d="M72 8v684q0 8 10 8h113q10 0 10 -8v-684q0 -8 -10 -8h-113q-10 0 -10 8z" />
    <glyph glyph-name="j" unicode="j" horiz-adv-x="406" 
d="M206 700h114q9 0 9 -8v-487q0 -57 -21.5 -99.5t-52 -61.5t-61 -30.5t-52.5 -12.5l-21 -1h-85q-10 0 -10 8v113q0 8 10 8h85q34 0 53 19t21 38l2 19v487q0 8 9 8z" />
    <glyph glyph-name="k" unicode="k" horiz-adv-x="646" 
d="M626 687l-278 -343l280 -331q4 -5 1.5 -9t-9.5 -4h-149q-5 0 -8 3l-204 252q-5 -5 -23.5 -27.5t-29.5 -33.5v-186q0 -8 -10 -8h-114q-10 0 -10 8v684q0 8 10 8h114q10 0 10 -8v-324l262 329q3 3 8 3h142q7 0 9.5 -4t-1.5 -9z" />
    <glyph glyph-name="l" unicode="l" horiz-adv-x="501" 
d="M204 129h241q10 0 10 -8v-113q0 -8 -10 -8h-364q-10 0 -10 8v684q0 8 10 8h113q10 0 10 -8v-563z" />
    <glyph glyph-name="m" unicode="m" horiz-adv-x="916" 
d="M828 692v-684q0 -8 -10 -8h-113q-10 0 -10 8v394l-176 -370q-3 -5 -9 -5h-107q-5 0 -8 5l-189 378v-402q0 -8 -10 -8h-113q-10 0 -10 8v684q0 8 10 8h115q6 0 9 -5l249 -515l238 515q2 5 9 5h115q10 0 10 -8z" />
    <glyph glyph-name="n" unicode="n" horiz-adv-x="742" 
d="M657 693v-685q0 -8 -10 -8h-114q-7 0 -8 3l-320 466v-461q0 -8 -9 -8h-114q-9 0 -9 8v685q0 8 9 8h115q5 0 7 -3l321 -470v465q0 8 10 8h112q10 0 10 -8z" />
    <glyph glyph-name="o" unicode="o" horiz-adv-x="797" 
d="M393 710q83 0 150 -30.5t109 -82t64 -115t22 -131.5t-22 -131.5t-64 -115t-109 -82.5t-150 -31q-111 0 -192 53.5t-118 133.5t-37 173q0 69 22 132t63.5 114.5t109.5 82t152 30.5zM393 117q99 0 154.5 69t55.5 163q0 95 -55.5 164.5t-154.5 69.5q-100 0 -155.5 -69.5
t-55.5 -164.5q0 -94 55.5 -163t155.5 -69z" />
    <glyph glyph-name="p" unicode="p" horiz-adv-x="580" 
d="M308 700q17 0 36.5 -1.5t58.5 -13.5t67.5 -32t51.5 -63t23 -101q0 -42 -12.5 -76t-31 -55.5t-44.5 -37t-48 -22.5t-47 -11.5t-35.5 -5t-18.5 -0.5h-104v-275q0 -8 -9 -8h-114q-9 0 -9 8v686q0 8 9 8h227zM308 410q12 0 24.5 2t33 8.5t33.5 24t13 44.5q0 22 -9.5 38.5
t-22 24.5t-29 12.5t-26 5.5t-17.5 1h-104v-161h104z" />
    <glyph glyph-name="q" unicode="q" horiz-adv-x="827" 
d="M754 63l-79 -79q-7 -5 -14 0l-66 66q-92 -60 -197 -60q-153 0 -251 106t-98 255t96 254t253 105q152 0 250.5 -106t98.5 -253q0 -117 -60 -209l67 -67q8 -6 0 -12zM398 118q50 0 102 26l-65 65q-8 6 0 12l80 80q7 5 14 0l62 -62q24 50 24 112q0 96 -58 163.5t-159 67.5
q-99 0 -157.5 -68t-58.5 -163q0 -94 60.5 -163.5t155.5 -69.5z" />
    <glyph glyph-name="r" unicode="r" horiz-adv-x="599" 
d="M407 5l-128 278h-75v-275q0 -8 -10 -8h-114q-9 0 -9 8v684q0 8 9 8h226q21 0 41 -1.5t59 -13t66 -31t49 -62t22 -100.5q0 -142 -129 -188l135 -293q5 -11 -8 -11h-125q-6 0 -9 5zM204 573v-162h102q104 0 104 81q0 27 -12.5 45t-32.5 25t-33 9t-26 2h-102z" />
    <glyph glyph-name="s" unicode="s" horiz-adv-x="543" 
d="M269 -10q-96 2 -158.5 56t-63.5 150q0 7 10 7h113q10 0 10 -7q1 -37 26.5 -57t62.5 -20t63 21.5t26 57.5q0 37 -28 61t-61 26q-55 0 -106 23q-55 26 -85.5 75t-30.5 111q0 97 66 156t156 59q93 0 155.5 -56.5t63.5 -145.5q0 -8 -10 -8h-112q-10 0 -10 8q-1 36 -25.5 55
t-61.5 19q-39 0 -64 -22.5t-25 -64.5q0 -37 26.5 -60.5t62.5 -23.5q54 0 104 -23q56 -26 86.5 -76t30.5 -113q0 -97 -65 -152.5t-156 -55.5z" />
    <glyph glyph-name="t" unicode="t" horiz-adv-x="448" 
d="M430 686v-104q0 -7 -10 -7h-133v-567q0 -8 -9 -8h-113q-9 0 -9 8v567h-133q-10 0 -10 7v104q0 8 10 8h397q10 0 10 -8z" />
    <glyph glyph-name="u" unicode="u" horiz-adv-x="683" 
d="M336 -10q-112 0 -188 64.5t-76 170.5v461q0 8 10 8h113q10 0 10 -8v-460q6 -51 43 -79t88 -28q54 0 92.5 28t38.5 78v461q0 8 10 8h114q9 0 9 -8v-461q0 -109 -74 -172t-190 -63z" />
    <glyph glyph-name="v" unicode="v" horiz-adv-x="571" 
d="M435 700h122q6 0 8.5 -3t0.5 -8l-272 -702q-2 -5 -8.5 -5t-8.5 5l-270 702q-5 11 8 11h122q7 0 9 -5l140 -391l140 391q2 5 9 5z" />
    <glyph glyph-name="w" unicode="w" horiz-adv-x="1005" 
d="M993 689l-271 -711q-2 -5 -8.5 -5t-8.5 5l-204 541l-203 -541q-2 -5 -9 -5t-9 5l-270 711q-2 4 1 7.5t8 3.5h122q7 0 9 -5l139 -390l141 390q2 5 8 5h126q7 0 9 -5l140 -390l141 390q2 5 9 5h122q13 0 8 -11z" />
    <glyph glyph-name="x" unicode="x" horiz-adv-x="674" 
d="M14 13l238 334l-238 340q-4 5 -1.5 9t9.5 4h138q6 0 8 -3l166 -237l164 237q2 3 8 3h139q6 0 8.5 -4t-0.5 -9l-239 -340l239 -334q3 -5 0.5 -9t-8.5 -4h-139q-6 0 -8 3l-164 231l-166 -231q-2 -3 -8 -3h-138q-7 0 -9.5 4t1.5 9z" />
    <glyph glyph-name="y" unicode="y" horiz-adv-x="655" 
d="M499 700h139q7 0 9.5 -4t-1.5 -9l-253 -360v-319q0 -8 -10 -8h-113q-10 0 -10 8v319l-253 360q-4 5 -1.5 9t9.5 4h139q6 0 7 -3l166 -237l165 237q2 3 7 3z" />
    <glyph glyph-name="z" unicode="z" horiz-adv-x="583" 
d="M554 0h-550q-5 0 -8 4t0 8l341 559h-304q-9 0 -9 8v113q0 8 9 8h521q6 0 8.5 -3.5t0.5 -8.5l-341 -559h332q9 0 9 -8v-113q0 -8 -9 -8z" />
    <glyph glyph-name="braceleft" unicode="{" horiz-adv-x="346" 
d="M104 417v275q0 8 10 8h191q9 0 9 -8v-114q0 -8 -9 -8h-67v-440h67q9 0 9 -8v-114q0 -8 -9 -8h-191q-10 0 -10 8v275l-56 28l-65 32q-6 2 -6 7t6 7z" />
    <glyph glyph-name="bar" unicode="|" horiz-adv-x="281" 
d="M72 700h114q10 0 10 -8v-684q0 -8 -10 -8h-114q-10 0 -10 8v684q0 8 10 8z" />
    <glyph glyph-name="braceright" unicode="}" horiz-adv-x="360" 
d="M242 283v-275q0 -8 -10 -8h-191q-9 0 -9 8v114q0 8 9 8h67v440h-67q-9 0 -9 8v114q0 8 9 8h191q10 0 10 -8v-275l56 -28l65 -32q6 -2 6 -7t-6 -7z" />
    <glyph glyph-name="asciitilde" unicode="~" horiz-adv-x="464" 
d="M122 257l-94 26q-10 2 -8 8q9 57 43 85.5t85 28.5q48 0 99 -24h-1q1 -1 4 -1q29 -12 40 -12q20 0 33 27q5 7 12 5l95 -28q4 0 6 -3t1 -6q-34 -110 -125 -110q-46 0 -101 23l-15 6q-35 10 -37 10q-16 0 -24 -29q-4 -8 -13 -6z" />
    <glyph glyph-name="exclamdown" unicode="&#xa1;" horiz-adv-x="276" 
d="M192 -8h-114q-10 0 -10 8v485q0 8 10 8h114q10 0 10 -8v-485q0 -8 -10 -8zM135 554q-31 0 -53 22t-22 52q0 29 22 50.5t53 21.5t53 -21.5t22 -50.5q0 -30 -22 -52t-53 -22z" />
    <glyph glyph-name="cent" unicode="&#xa2;" horiz-adv-x="580" 
d="M265 7v64q-97 24 -159.5 101.5t-62.5 177.5q0 99 62.5 176.5t159.5 101.5v78q0 8 10 8h88q10 0 10 -8v-72q93 -11 165 -80q9 -16 1 -24l-63 -63q-16 -16 -29 2q-32 31 -74 40v-319q42 10 75 43q13 12 32 -4l58 -59q9 -16 1 -24q-68 -68 -166 -80v-59q0 -8 -10 -8h-88
q-10 0 -10 8zM177 350q0 -50 23.5 -90t64.5 -59v298q-39 -22 -63.5 -61.5t-24.5 -87.5z" />
    <glyph glyph-name="sterling" unicode="&#xa3;" horiz-adv-x="592" 
d="M349 238h-141q-11 -60 -13 -103h345q10 0 10 -8v-119q0 -8 -10 -8h-476q-10 0 -10 8v59q0 90 14 171h-59q-10 0 -10 7v120q0 7 10 7h96q17 44 21 52q56 116 166 194q53 33 116 53.5t92 24.5t41 4q10 0 10 -8v-119q0 -8 -10 -8q-9 0 -27 -2t-63.5 -17.5t-83.5 -42.5
q-68 -48 -113 -131h95q10 0 10 -7v-120q0 -7 -10 -7z" />
    <glyph glyph-name="yen" unicode="&#xa5;" horiz-adv-x="640" 
d="M492 700h140q7 0 9.5 -4t-1.5 -9l-211 -295h71q10 0 10 -8v-91q0 -8 -10 -8h-115v-42h115q10 0 10 -8v-88q0 -8 -10 -8h-115v-131q0 -8 -10 -8h-114q-10 0 -10 8v131h-119q-10 0 -10 8v88q0 8 10 8h119v42h-120q-10 0 -10 8v91q0 8 10 8h73l-208 295q-4 5 -1.5 9t9.5 4
h139q7 0 8 -3l167 -237l167 237q1 3 7 3z" />
    <glyph glyph-name="section" unicode="&#xa7;" horiz-adv-x="416" 
d="M283 486q86 -39 88 -137q0 -62 -40 -104q40 -42 40 -105q0 -45 -23.5 -80.5t-64.5 -55.5q-40 -19 -79 -19q-37 0 -79 19q-40 20 -64 56t-24 80q0 8 10 8h83q10 0 10 -8q0 -34 28 -46q16 -8 36 -8q21 0 39 9q25 13 25 45q0 35 -27 47q-18 8 -37 8q-36 0 -79 18
q-40 21 -63.5 57t-24.5 80q0 62 41 105q-41 39 -41 104q0 44 24 80t64 56q42 19 79 19q39 0 79 -19q41 -20 64.5 -55.5t23.5 -80.5q0 -8 -10 -8h-83q-10 0 -10 8q0 34 -27 46q-10 5 -32 8l-5 1h-1q-1 -1 -2 -1q-26 -3 -35 -8h1q-27 -13 -27 -46q0 -35 28 -47q8 -4 17 -6
t14 -2h5q40 0 79 -18zM243 304q25 12 25 46q0 32 -27 46q-21 8 -36 8q-17 0 -39 -9q-26 -14 -26 -45q0 -33 28 -47q20 -8 36 -8q19 0 39 9z" />
    <glyph glyph-name="dieresis" unicode="&#xa8;" horiz-adv-x="376" 
d="M156 634q0 -29 -22.5 -50.5t-52.5 -21.5q-29 0 -51 21.5t-22 50.5t22 50.5t51 21.5q30 0 52.5 -21.5t22.5 -50.5zM360 634q0 -29 -22 -50.5t-52 -21.5t-52 21.5t-22 50.5t22 50.5t52 21.5t52 -21.5t22 -50.5z" />
    <glyph glyph-name="copyright" unicode="&#xa9;" horiz-adv-x="692" 
d="M340 700q126 0 214.5 -88.5t88.5 -213.5q0 -124 -88.5 -211.5t-214.5 -87.5t-214 87.5t-88 211.5q0 125 88 213.5t214 88.5zM340 190q86 0 146.5 61t60.5 147q0 87 -60.5 148.5t-146.5 61.5q-85 0 -146 -61.5t-61 -148.5q0 -85 61 -146.5t146 -61.5zM347 316q32 0 59 24
q6 5 13 0l34 -31q6 -6 0 -12q-45 -43 -106 -43q-59 0 -103 43.5t-44 101.5q0 60 44 103.5t103 43.5q61 0 106 -43q6 -6 0 -12l-34 -32q-7 -5 -13 0q-27 25 -59 25q-34 0 -57.5 -24.5t-23.5 -60.5q0 -35 23.5 -59t57.5 -24z" />
    <glyph glyph-name="guillemotleft" unicode="&#xab;" horiz-adv-x="504" 
d="M201 554l73 -58q7 -6 2 -11l-128 -164l132 -148q5 -5 -2 -11l-74 -61q-6 -5 -14 1l-181 214q-5 5 0 10l178 227q7 7 14 1zM400 554l73 -58q7 -6 2 -11l-118 -164l122 -148q5 -5 -2 -11l-74 -61q-6 -5 -14 1l-179 214q-5 5 0 10l176 227q7 7 14 1z" />
    <glyph glyph-name="registered" unicode="&#xae;" horiz-adv-x="675" 
d="M335 700q126 0 214.5 -88.5t88.5 -213.5q0 -124 -88.5 -211.5t-214.5 -87.5t-214 87.5t-88 211.5q0 125 88 213.5t214 88.5zM335 197q83 0 141.5 59t58.5 142q0 84 -58 143t-142 59q-82 0 -140.5 -59t-58.5 -143q0 -83 58.5 -142t140.5 -59zM378 253l-54 116h-23v-113
q0 -8 -10 -8h-49q-9 0 -9 8v280q0 8 9 8h97q49 0 79 -25.5t30 -65.5q0 -49 -55 -77l56 -117q5 -11 -9 -11h-53q-7 0 -9 5zM301 483v-57h38q19 0 29 8t10 20t-10.5 20t-28.5 9h-38z" />
    <glyph glyph-name="degree" unicode="&#xb0;" horiz-adv-x="365" 
d="M180 400q-65 0 -112 46.5t-47 110.5q0 65 47 111.5t112 46.5t112 -46.5t47 -111.5q0 -64 -47 -110.5t-112 -46.5zM180 622q-25 0 -43.5 -19.5t-18.5 -45.5t18 -44.5t44 -18.5t44 18.5t18 44.5t-18.5 45.5t-43.5 19.5z" />
    <glyph glyph-name="plusminus" unicode="&#xb1;" horiz-adv-x="518" 
d="M463 430v-99q0 -7 -9 -7h-142v-147q0 -8 -10 -8h-102q-9 0 -9 8v147h-143q-10 0 -10 7v99q0 8 10 8h143v144q0 8 9 8h102q10 0 10 -8v-144h142q9 0 9 -8zM441 8v114h-383v-114h383z" />
    <glyph glyph-name="twosuperior" unicode="&#xb2;" horiz-adv-x="341" 
d="M278 365v-65q0 -8 -9 -8h-230q-10 0 -10 8v60l137 192q23 34 15 54.5t-30 20.5q-15 0 -26 -9t-11 -26q0 -8 -10 -8h-65q-10 0 -10 8q0 50 34.5 83t89.5 33q48 0 82 -28t38 -71t-30 -94l-102 -143h128q9 0 9 -7z" />
    <glyph glyph-name="threesuperior" unicode="&#xb3;" horiz-adv-x="333" 
d="M160 292q-52 0 -88 36t-36 87q0 7 10 7h65q10 0 10 -7q0 -18 11.5 -30t27.5 -12q18 0 31 12.5t13 29.5q0 20 -10.5 34.5t-27.5 14.5h-27q-10 0 -10 7v55q0 8 10 8h28q17 0 26 13.5t9 30.5t-12.5 29t-29.5 12q-16 0 -28.5 -12t-12.5 -29q0 -8 -10 -8h-63q-10 0 -10 8
q0 50 36.5 86t87.5 36q52 0 89.5 -34.5t37.5 -87.5q0 -54 -40 -80q43 -30 43 -83q0 -57 -38 -90t-92 -33z" />
    <glyph glyph-name="acute" unicode="&#xb4;" horiz-adv-x="278" 
d="M59 545l-48 80q-6 8 4 10l186 102q9 4 14 -3l52 -82q4 -7 -4 -11l-190 -99q-9 -4 -14 3z" />
    <glyph glyph-name="periodcentered" unicode="&#xb7;" horiz-adv-x="204" 
d="M95 427q32 0 54 -22t22 -52t-22 -51t-54 -21q-30 0 -52 21.5t-22 50.5q0 30 22 52t52 22z" />
    <glyph glyph-name="cedilla" unicode="&#xb8;" horiz-adv-x="429" 
d="M204 -235q-72 0 -123 51t-51 122q0 8 9 8h93q10 0 10 -8q0 -26 18 -44.5t44 -18.5q25 0 42.5 18.5t17.5 44.5q0 27 -17.5 45t-42.5 18q-10 0 -10 8v94q0 7 10 7q71 0 122.5 -51t51.5 -121q0 -71 -51.5 -122t-122.5 -51z" />
    <glyph glyph-name="onesuperior" unicode="&#xb9;" horiz-adv-x="267" 
d="M190 692v-338q0 -8 -10 -8h-66q-10 0 -10 8v250l-39 -14q-9 -3 -13 3l-24 61q-3 7 5 10l89 36h58q10 0 10 -8z" />
    <glyph glyph-name="guillemotright" unicode="&#xbb;" horiz-adv-x="499" 
d="M213 496l73 58q7 6 14 -1l179 -227q5 -5 0 -10l-182 -214q-8 -6 -14 -1l-74 61q-7 6 -2 11l122 148l-118 164q-5 5 2 11zM24 496l74 58q7 5 13 -1l179 -227q5 -5 0 -10l-182 -214q-7 -5 -13 -1l-75 61q-6 6 -2 11l123 148l-119 164q-5 5 2 11z" />
    <glyph glyph-name="questiondown" unicode="&#xbf;" horiz-adv-x="490" 
d="M244 -10q-94 0 -154.5 56t-60.5 158q0 63 46.5 114.5t112.5 70.5v114q0 7 9 7h104q10 0 10 -7v-207q0 -8 -11 -8q-74 5 -105.5 -21.5t-31.5 -62.5q0 -84 81 -84q33 0 54.5 18t21.5 49q0 8 10 8h114q9 0 9 -8q0 -85 -60 -141t-149 -56zM321 633q0 -33 -22.5 -52.5
t-53.5 -19.5q-30 0 -52 19t-22 53q0 33 22.5 52t53.5 19q30 0 52 -19t22 -52z" />
    <glyph glyph-name="Agrave" unicode="&#xc0;" 
d="M418 5l-29 74h-227l-27 -74q-2 -5 -9 -5h-123q-6 0 -8.5 3t-0.5 8l273 704q2 5 9 5t9 -5l273 -704q2 -4 -0.5 -7.5t-7.5 -3.5h-124q-6 0 -8 5zM276 407l-71 -210h141zM404 811l-47 -79q-5 -7 -14 -3l-180 98q-10 2 -4 10l52 83q5 7 14 3l175 -101q9 -4 4 -11z" />
    <glyph glyph-name="Aacute" unicode="&#xc1;" 
d="M418 5l-29 74h-227l-27 -74q-2 -5 -9 -5h-123q-6 0 -8.5 3t-0.5 8l273 704q2 5 9 5t9 -5l273 -704q2 -4 -0.5 -7.5t-7.5 -3.5h-124q-6 0 -8 5zM276 407l-71 -210h141zM198 731l-48 80q-6 8 4 10l186 102q9 4 14 -3l52 -82q4 -7 -4 -11l-190 -99q-9 -4 -14 3z" />
    <glyph glyph-name="Acircumflex" unicode="&#xc2;" 
d="M418 5l-29 74h-227l-27 -74q-2 -5 -9 -5h-123q-6 0 -8.5 3t-0.5 8l273 704q2 5 9 5t9 -5l273 -704q2 -4 -0.5 -7.5t-7.5 -3.5h-124q-6 0 -8 5zM276 407l-71 -210h141zM149 719l-47 69q-6 8 3 12l166 96q5 2 10 0l169 -91q9 -4 4 -10l-44 -76q-5 -5 -14 -3l-120 68
l-115 -68q-7 -2 -12 3z" />
    <glyph glyph-name="Atilde" unicode="&#xc3;" 
d="M418 5l-29 74h-227l-27 -74q-2 -5 -9 -5h-123q-6 0 -8.5 3t-0.5 8l273 704q2 5 9 5t9 -5l273 -704q2 -4 -0.5 -7.5t-7.5 -3.5h-124q-6 0 -8 5zM276 407l-71 -210h141zM186 744l-79 22q-9 2 -7 9q7 52 36.5 78.5t73.5 26.5q42 0 83 -22h-3h2q2 -1 3 -1q20 -10 35 -10
q16 0 26 23q4 7 12 5l79 -25q10 -2 7 -9q-30 -101 -108 -101q-35 0 -85 21l-14 5q-20 9 -29 9q-12 0 -19 -25q-4 -8 -13 -6z" />
    <glyph glyph-name="Adieresis" unicode="&#xc4;" 
d="M418 5l-29 74h-227l-27 -74q-2 -5 -9 -5h-123q-6 0 -8.5 3t-0.5 8l273 704q2 5 9 5t9 -5l273 -704q2 -4 -0.5 -7.5t-7.5 -3.5h-124q-6 0 -8 5zM276 407l-71 -210h141zM249 802q0 -29 -22.5 -50.5t-52.5 -21.5q-29 0 -51 21.5t-22 50.5t22 50.5t51 21.5q30 0 52.5 -21.5
t22.5 -50.5zM453 802q0 -29 -22 -50.5t-52 -21.5t-52 21.5t-22 50.5t22 50.5t52 21.5t52 -21.5t22 -50.5z" />
    <glyph glyph-name="Aring" unicode="&#xc5;" 
d="M126 0h-123q-6 0 -8.5 3t-0.5 8l222 575q-38 15 -60 49.5t-22 77.5q0 57 42 98.5t100 41.5t100 -41.5t42 -98.5q0 -39 -24 -74t-59 -53l223 -575q2 -4 -0.5 -7.5t-7.5 -3.5h-124q-6 0 -8 5l-29 74h-227l-27 -74q-2 -5 -9 -5zM276 394l-71 -200h141zM276 761
q-19 0 -32 -14t-13 -34t13 -33.5t32 -13.5q18 0 31.5 13.5t13.5 33.5q0 19 -13.5 33.5t-31.5 14.5z" />
    <glyph glyph-name="AE" unicode="&#xc6;" horiz-adv-x="790" 
d="M722 578h-235v-163h189q10 0 10 -8v-106q0 -8 -10 -8h-189v-171h246q10 0 10 -8v-106q0 -8 -10 -8h-370q-10 0 -10 8v82h-163l-47 -86q-2 -4 -9 -4h-132q-6 0 -9 4t0 8l351 681l-1 -4q0 1 1 1l1 2q0 8 10 8h367q10 0 10 -8v-106q0 -8 -10 -8zM244 204h109q0 73 6 252z
" />
    <glyph glyph-name="Ccedilla" unicode="&#xc7;" horiz-adv-x="694" 
d="M402 129q92 0 156 66q7 3 14 0l81 -84q7 -5 0 -11q-49 -51 -121 -81q31 -36 31 -85q0 -71 -52 -123t-125 -52q-75 0 -125.5 46t-50.5 118q0 7 10 7h95q10 0 10 -7q0 -26 17 -39.5t44 -13.5q25 0 43.5 19t18.5 45q0 25 -14.5 42.5t-36.5 20.5h1q-147 1 -250 105t-103 250
q0 147 104.5 252t252.5 105q150 0 251 -104q7 -5 0 -11l-81 -82q-7 -4 -14 0q-65 65 -156 65t-156 -66.5t-65 -158.5q0 -93 64.5 -158t156.5 -65z" />
    <glyph glyph-name="Egrave" unicode="&#xc8;" horiz-adv-x="588" 
d="M528 573h-323v-158h275q9 0 9 -8v-111q0 -8 -9 -8h-275v-158h332q10 0 10 -8v-114q0 -8 -10 -8h-456q-10 0 -10 8v684q0 8 10 8h447q10 0 10 -8v-111q0 -8 -10 -8zM424 823l-47 -79q-5 -7 -14 -3l-180 98q-10 2 -4 10l52 83q5 7 14 3l175 -101q9 -4 4 -11z" />
    <glyph glyph-name="Eacute" unicode="&#xc9;" horiz-adv-x="588" 
d="M528 573h-323v-158h275q9 0 9 -8v-111q0 -8 -9 -8h-275v-158h332q10 0 10 -8v-114q0 -8 -10 -8h-456q-10 0 -10 8v684q0 8 10 8h447q10 0 10 -8v-111q0 -8 -10 -8zM242 745l-48 80q-6 8 4 10l186 102q9 4 14 -3l52 -82q4 -7 -4 -11l-190 -99q-9 -4 -14 3z" />
    <glyph glyph-name="Ecircumflex" unicode="&#xca;" horiz-adv-x="588" 
d="M528 573h-323v-158h275q9 0 9 -8v-111q0 -8 -9 -8h-275v-158h332q10 0 10 -8v-114q0 -8 -10 -8h-456q-10 0 -10 8v684q0 8 10 8h447q10 0 10 -8v-111q0 -8 -10 -8zM183 748l-47 69q-6 8 3 12l166 96q1 1 5 1t5 -1l169 -91q9 -4 4 -10l-44 -76q-5 -5 -14 -3l-120 68
l-115 -68q-7 -2 -12 3z" />
    <glyph glyph-name="Edieresis" unicode="&#xcb;" horiz-adv-x="588" 
d="M528 573h-323v-158h275q9 0 9 -8v-111q0 -8 -9 -8h-275v-158h332q10 0 10 -8v-114q0 -8 -10 -8h-456q-10 0 -10 8v684q0 8 10 8h447q10 0 10 -8v-111q0 -8 -10 -8zM287 816q0 -29 -22.5 -50.5t-52.5 -21.5q-29 0 -51 21.5t-22 50.5t22 50.5t51 21.5q30 0 52.5 -21.5
t22.5 -50.5zM491 816q0 -29 -22 -50.5t-52 -21.5t-52 21.5t-22 50.5t22 50.5t52 21.5t52 -21.5t22 -50.5z" />
    <glyph glyph-name="Igrave" unicode="&#xcc;" horiz-adv-x="350" 
d="M305 580h-66v-460h70q10 0 10 -8v-104q0 -8 -10 -8h-275q-10 0 -10 8v104q0 8 10 8h71v460h-67q-10 0 -10 8v104q0 8 10 8h267q10 0 10 -8v-104q0 -8 -10 -8zM296 818l-47 -79q-5 -7 -14 -3l-180 98q-10 2 -4 10l52 83q5 7 14 3l175 -101q9 -4 4 -11z" />
    <glyph glyph-name="Iacute" unicode="&#xcd;" horiz-adv-x="350" 
d="M305 580h-66v-460h70q10 0 10 -8v-104q0 -8 -10 -8h-275q-10 0 -10 8v104q0 8 10 8h71v460h-67q-10 0 -10 8v104q0 8 10 8h267q10 0 10 -8v-104q0 -8 -10 -8zM93 735l-48 80q-6 8 4 10l186 102q9 4 14 -3l52 -82q4 -7 -4 -11l-190 -99q-9 -4 -14 3z" />
    <glyph glyph-name="Icircumflex" unicode="&#xce;" horiz-adv-x="350" 
d="M305 580h-66v-460h70q10 0 10 -8v-104q0 -8 -10 -8h-275q-10 0 -10 8v104q0 8 10 8h71v460h-67q-10 0 -10 8v104q0 8 10 8h267q10 0 10 -8v-104q0 -8 -10 -8zM45 747l-47 69q-6 8 3 12l166 96q5 2 10 0l169 -91q9 -4 4 -10l-44 -76q-5 -5 -14 -3l-120 68l-115 -68
q-7 -2 -12 3z" />
    <glyph glyph-name="Idieresis" unicode="&#xcf;" horiz-adv-x="350" 
d="M305 580h-66v-460h70q10 0 10 -8v-104q0 -8 -10 -8h-275q-10 0 -10 8v104q0 8 10 8h71v460h-67q-10 0 -10 8v104q0 8 10 8h267q10 0 10 -8v-104q0 -8 -10 -8zM146 813q0 -29 -22.5 -50.5t-52.5 -21.5q-29 0 -51 21.5t-22 50.5t22 50.5t51 21.5q30 0 52.5 -21.5
t22.5 -50.5zM350 813q0 -29 -22 -50.5t-52 -21.5t-52 21.5t-22 50.5t22 50.5t52 21.5t52 -21.5t22 -50.5z" />
    <glyph glyph-name="Eth" unicode="&#xd0;" horiz-adv-x="662" 
d="M81 700h114q410 0 410 -350q0 -86 -26.5 -151t-67 -102t-97.5 -59.5t-108.5 -30t-110.5 -7.5h-114q-10 0 -10 8v282h-65q-9 0 -9 8v99q0 8 9 8h65v287q0 8 10 8zM205 290v-164q31 -1 60 1t68.5 14.5t68 35t48.5 67.5t20 106q0 119 -72.5 175t-192.5 50v-170h118
q10 0 10 -8v-99q0 -8 -10 -8h-118z" />
    <glyph glyph-name="Ntilde" unicode="&#xd1;" horiz-adv-x="742" 
d="M661 692v-684q0 -8 -10 -8h-115q-6 0 -8 3l-322 461v-456q0 -8 -10 -8h-115q-9 0 -9 8v684q0 8 9 8h116q7 0 8 -3l323 -461v456q0 8 10 8h113q10 0 10 -8zM280 760l-79 22q-9 2 -7 9q7 52 36.5 78.5t73.5 26.5q42 0 83 -22h-3h2q2 -1 3 -1q20 -10 35 -10q16 0 26 23
q4 7 12 5l79 -25q10 -2 7 -9q-30 -101 -108 -101q-35 0 -85 21l-14 5q-20 9 -29 9q-12 0 -19 -25q-4 -8 -13 -6z" />
    <glyph glyph-name="Ograve" unicode="&#xd2;" horiz-adv-x="638" 
d="M313 186q-109 0 -186.5 77t-77.5 185q0 107 77.5 184.5t186.5 77.5t186.5 -77.5t77.5 -184.5q0 -108 -77.5 -185t-186.5 -77zM313 581q-54 0 -92.5 -39t-38.5 -94q0 -56 38.5 -94.5t92.5 -38.5q55 0 93 38.5t38 94.5t-38 94.5t-93 38.5zM546 121v-113q0 -8 -10 -8h-451
q-10 0 -10 8v113q0 8 10 8h451q10 0 10 -8zM440 818l-47 -79q-5 -7 -14 -3l-180 98q-10 2 -4 10l52 83q5 7 14 3l175 -101q9 -4 4 -11z" />
    <glyph glyph-name="Oacute" unicode="&#xd3;" horiz-adv-x="638" 
d="M313 186q-109 0 -186.5 77t-77.5 185q0 107 77.5 184.5t186.5 77.5t186.5 -77.5t77.5 -184.5q0 -108 -77.5 -185t-186.5 -77zM313 581q-54 0 -92.5 -39t-38.5 -94q0 -56 38.5 -94.5t92.5 -38.5q55 0 93 38.5t38 94.5t-38 94.5t-93 38.5zM546 121v-113q0 -8 -10 -8h-451
q-10 0 -10 8v113q0 8 10 8h451q10 0 10 -8zM237 745l-48 80q-6 8 4 10l186 102q9 4 14 -3l52 -82q4 -7 -4 -11l-190 -99q-9 -4 -14 3z" />
    <glyph glyph-name="Ocircumflex" unicode="&#xd4;" horiz-adv-x="638" 
d="M313 186q-109 0 -186.5 77t-77.5 185q0 107 77.5 184.5t186.5 77.5t186.5 -77.5t77.5 -184.5q0 -108 -77.5 -185t-186.5 -77zM313 581q-54 0 -92.5 -39t-38.5 -94q0 -56 38.5 -94.5t92.5 -38.5q55 0 93 38.5t38 94.5t-38 94.5t-93 38.5zM546 121v-113q0 -8 -10 -8h-451
q-10 0 -10 8v113q0 8 10 8h451q10 0 10 -8zM188 735l-47 69q-6 8 3 12l166 96q5 2 10 0l169 -91q9 -4 4 -10l-44 -76q-5 -5 -14 -3l-120 68l-115 -68q-7 -2 -12 3z" />
    <glyph glyph-name="Otilde" unicode="&#xd5;" horiz-adv-x="638" 
d="M313 186q-109 0 -186.5 77t-77.5 185q0 107 77.5 184.5t186.5 77.5t186.5 -77.5t77.5 -184.5q0 -108 -77.5 -185t-186.5 -77zM313 581q-54 0 -92.5 -39t-38.5 -94q0 -56 38.5 -94.5t92.5 -38.5q55 0 93 38.5t38 94.5t-38 94.5t-93 38.5zM546 121v-113q0 -8 -10 -8h-451
q-10 0 -10 8v113q0 8 10 8h451q10 0 10 -8zM226 751l-79 22q-9 2 -7 9q7 52 36.5 78.5t73.5 26.5q42 0 83 -22h-3l2 -1h3q20 -10 35 -10q16 0 26 23q4 7 12 5l79 -25q10 -2 7 -9q-30 -101 -108 -101q-35 0 -85 21l-14 5q-20 9 -29 9q-12 0 -19 -25q-4 -8 -13 -6z" />
    <glyph glyph-name="Odieresis" unicode="&#xd6;" horiz-adv-x="638" 
d="M313 186q-109 0 -186.5 77t-77.5 185q0 107 77.5 184.5t186.5 77.5t186.5 -77.5t77.5 -184.5q0 -108 -77.5 -185t-186.5 -77zM313 581q-54 0 -92.5 -39t-38.5 -94q0 -56 38.5 -94.5t92.5 -38.5q55 0 93 38.5t38 94.5t-38 94.5t-93 38.5zM546 121v-113q0 -8 -10 -8h-451
q-10 0 -10 8v113q0 8 10 8h451q10 0 10 -8zM289 804q0 -29 -22.5 -50.5t-52.5 -21.5q-29 0 -51 21.5t-22 50.5t22 50.5t51 21.5q30 0 52.5 -21.5t22.5 -50.5zM493 804q0 -29 -22 -50.5t-52 -21.5t-52 21.5t-22 50.5t22 50.5t52 21.5t52 -21.5t22 -50.5z" />
    <glyph glyph-name="multiply" unicode="&#xd7;" horiz-adv-x="403" 
d="M367 233l-70 -69q-7 -5 -13 0l-95 95l-94 -95q-7 -5 -14 0l-68 69q-7 5 0 11l96 96l-97 95q-8 6 0 12l69 69q7 5 14 0l96 -96l94 95q7 5 13 0l69 -68q8 -6 0 -12l-96 -95l96 -96q7 -5 0 -11z" />
    <glyph glyph-name="Oslash" unicode="&#xd8;" horiz-adv-x="638" 
d="M313 176q-48 0 -90 16l-25 -34q-2 -3 -8 -3h-116q-7 0 -9.5 3.5t1.5 8.5l60 86q-76 83 -76 185q0 108 77 185t186 77q53 0 103 -21l29 43q1 3 8 3h120q6 0 8.5 -3.5t-1.5 -8.5l-69 -102q66 -74 66 -173q0 -108 -77.5 -185t-186.5 -77zM546 121v-113q0 -8 -10 -8h-451
q-10 0 -10 8v113q0 8 10 8h451q10 0 10 -8zM313 571q-54 0 -92.5 -39t-38.5 -94q0 -35 20 -71l138 201q-14 3 -27 3zM444 438q0 30 -13 59l-131 -191q5 -1 13 -1q55 0 93 38.5t38 94.5z" />
    <glyph glyph-name="Ugrave" unicode="&#xd9;" horiz-adv-x="740" 
d="M81 700h569q10 0 10 -8v-409q0 -73 -35 -143q-37 -72 -103.5 -111t-155.5 -39t-156 38.5t-103 111.5q-35 70 -35 143v409q0 8 9 8zM504 196q23 44 23 88v296h-322v-297q1 -45 23 -87q40 -76 138 -76t138 76zM491 818l-47 -79q-5 -7 -14 -3l-180 98q-10 2 -4 10l52 83
q5 7 14 3l175 -101q9 -4 4 -11z" />
    <glyph glyph-name="Uacute" unicode="&#xda;" horiz-adv-x="740" 
d="M81 700h569q10 0 10 -8v-409q0 -73 -35 -143q-37 -72 -103.5 -111t-155.5 -39t-156 38.5t-103 111.5q-35 70 -35 143v409q0 8 9 8zM504 196q23 44 23 88v296h-322v-297q1 -45 23 -87q40 -76 138 -76t138 76zM288 745l-48 80q-6 8 4 10l186 102q9 4 14 -3l52 -82
q4 -7 -4 -11l-190 -99q-9 -4 -14 3z" />
    <glyph glyph-name="Ucircumflex" unicode="&#xdb;" horiz-adv-x="740" 
d="M81 700h569q10 0 10 -8v-409q0 -73 -35 -143q-37 -72 -103.5 -111t-155.5 -39t-156 38.5t-103 111.5q-35 70 -35 143v409q0 8 9 8zM504 196q23 44 23 88v296h-322v-297q1 -45 23 -87q40 -76 138 -76t138 76zM239 750l-47 69q-6 8 3 12l166 96q1 1 5 1t5 -1l169 -91
q9 -4 4 -10l-44 -76q-5 -5 -14 -3l-120 68l-115 -68q-7 -2 -12 3z" />
    <glyph glyph-name="Udieresis" unicode="&#xdc;" horiz-adv-x="740" 
d="M81 700h569q10 0 10 -8v-409q0 -73 -35 -143q-37 -72 -103.5 -111t-155.5 -39t-156 38.5t-103 111.5q-35 70 -35 143v409q0 8 9 8zM504 196q23 44 23 88v296h-322v-297q1 -45 23 -87q40 -76 138 -76t138 76zM340 819q0 -29 -22.5 -50.5t-52.5 -21.5q-29 0 -51 21.5
t-22 50.5t22 50.5t51 21.5q30 0 52.5 -21.5t22.5 -50.5zM544 819q0 -29 -22 -50.5t-52 -21.5t-52 21.5t-22 50.5t22 50.5t52 21.5t52 -21.5t22 -50.5z" />
    <glyph glyph-name="Yacute" unicode="&#xdd;" horiz-adv-x="645" 
d="M492 700h140q7 0 9.5 -4t-1.5 -9l-255 -358v-321q0 -8 -10 -8h-114q-10 0 -10 8v321l-255 358q-4 5 -1.5 9t9.5 4h139q7 0 8 -3l167 -233l167 233q1 3 7 3zM241 734l-48 80q-6 8 4 10l186 102q9 4 14 -3l52 -82q4 -7 -4 -11l-190 -99q-9 -4 -14 3z" />
    <glyph glyph-name="Thorn" unicode="&#xde;" horiz-adv-x="583" 
d="M309 561q13 0 29.5 -1.5t57 -12.5t71 -30.5t55 -62t24.5 -100.5q0 -42 -11.5 -75.5t-29 -54.5t-42 -36.5t-46 -23t-46.5 -12t-37.5 -5t-24.5 -0.5h-104v-139q0 -8 -10 -8h-114q-10 0 -10 8v260q0 8 10 8h93l-103 162v255q0 8 10 8h114q10 0 10 -8v-132h104zM309 431h-88
l97 -153q36 0 65.5 18.5t29.5 57.5q0 24 -11.5 41t-30 24t-33 9.5t-29.5 2.5z" />
    <glyph glyph-name="germandbls" unicode="&#xdf;" horiz-adv-x="592" 
d="M211 574l-1 -566q0 -8 -9 -8h-120q-9 0 -9 8v684q0 8 9 8h226q5 0 13.5 -0.5t33 -4.5t47 -11t49.5 -22.5t46.5 -36.5t33 -55t13.5 -76q0 -69 -34.5 -107.5t-66.5 -41.5q31 -9 53 -26.5t32 -36.5t15.5 -36.5t5.5 -29.5l1 -11q0 -42 -13.5 -76t-34.5 -54.5t-47 -36
t-52 -22.5t-47 -11t-35 -5h-13q-9 0 -9 8v112q0 8 9 8q5 0 12 0.5t26.5 4.5t34 11.5t26.5 23t12 37.5q0 34 -28 53.5t-56 21.5l-27 2q-9 0 -9 8v113q0 8 9 8q104 0 104 83q0 40 -32.5 60t-72.5 20h-95z" />
    <glyph glyph-name="agrave" unicode="&#xe0;" 
d="M418 5l-29 74h-227l-27 -74q-2 -5 -9 -5h-123q-6 0 -8.5 3t-0.5 8l273 704q2 5 9 5t9 -5l273 -704q2 -4 -0.5 -7.5t-7.5 -3.5h-124q-6 0 -8 5zM276 407l-71 -210h141zM404 811l-47 -79q-5 -7 -14 -3l-180 98q-10 2 -4 10l52 83q5 7 14 3l175 -101q9 -4 4 -11z" />
    <glyph glyph-name="aacute" unicode="&#xe1;" 
d="M418 5l-29 74h-227l-27 -74q-2 -5 -9 -5h-123q-6 0 -8.5 3t-0.5 8l273 704q2 5 9 5t9 -5l273 -704q2 -4 -0.5 -7.5t-7.5 -3.5h-124q-6 0 -8 5zM276 407l-71 -210h141zM198 731l-48 80q-6 8 4 10l186 102q9 4 14 -3l52 -82q4 -7 -4 -11l-190 -99q-9 -4 -14 3z" />
    <glyph glyph-name="acircumflex" unicode="&#xe2;" 
d="M418 5l-29 74h-227l-27 -74q-2 -5 -9 -5h-123q-6 0 -8.5 3t-0.5 8l273 704q2 5 9 5t9 -5l273 -704q2 -4 -0.5 -7.5t-7.5 -3.5h-124q-6 0 -8 5zM276 407l-71 -210h141zM149 719l-47 69q-6 8 3 12l166 96q5 2 10 0l169 -91q9 -4 4 -10l-44 -76q-5 -5 -14 -3l-120 68
l-115 -68q-7 -2 -12 3z" />
    <glyph glyph-name="atilde" unicode="&#xe3;" 
d="M418 5l-29 74h-227l-27 -74q-2 -5 -9 -5h-123q-6 0 -8.5 3t-0.5 8l273 704q2 5 9 5t9 -5l273 -704q2 -4 -0.5 -7.5t-7.5 -3.5h-124q-6 0 -8 5zM276 407l-71 -210h141zM186 748l-79 22q-9 2 -7 9q7 52 36.5 78.5t73.5 26.5q42 0 83 -22h-3h2q2 -1 3 -1q20 -10 35 -10
q16 0 26 23q4 7 12 5l79 -25q10 -2 7 -9q-30 -101 -108 -101q-35 0 -85 21l-14 5q-20 9 -29 9q-12 0 -19 -25q-4 -8 -13 -6z" />
    <glyph glyph-name="adieresis" unicode="&#xe4;" 
d="M418 5l-29 74h-227l-27 -74q-2 -5 -9 -5h-123q-6 0 -8.5 3t-0.5 8l273 704q2 5 9 5t9 -5l273 -704q2 -4 -0.5 -7.5t-7.5 -3.5h-124q-6 0 -8 5zM276 407l-71 -210h141zM249 802q0 -29 -22.5 -50.5t-52.5 -21.5q-29 0 -51 21.5t-22 50.5t22 50.5t51 21.5q30 0 52.5 -21.5
t22.5 -50.5zM453 802q0 -29 -22 -50.5t-52 -21.5t-52 21.5t-22 50.5t22 50.5t52 21.5t52 -21.5t22 -50.5z" />
    <glyph glyph-name="aring" unicode="&#xe5;" 
d="M126 0h-122q-5 0 -7.5 3.5t-0.5 7.5l220 569q-38 16 -60 49.5t-22 76.5q0 57 41.5 98t99.5 41q57 0 98.5 -41t41.5 -98q0 -38 -23.5 -72.5t-58.5 -53.5l222 -569q5 -11 -9 -11h-122q-7 0 -9 5l-28 73h-225l-27 -73q-2 -5 -9 -5zM275 391l-70 -199h139zM275 754
q-19 0 -32 -14t-13 -34q0 -19 13 -32.5t32 -13.5q18 0 31 13.5t13 32.5q0 20 -13 34t-31 14z" />
    <glyph glyph-name="ae" unicode="&#xe6;" horiz-adv-x="790" 
d="M717 568h-233v-157h187q10 0 10 -8v-108q0 -8 -10 -8h-187v-162h245q9 0 9 -8v-109q0 -8 -9 -8h-368q-9 0 -9 8v70h-169l-40 -74q-2 -4 -8 -4h-131q-6 0 -9 4t0 8l358 675l-1 -4q0 1 1 1l1 2q0 8 9 8h354q10 0 10 -8v-110q0 -8 -10 -8zM242 201h110q0 24 0.5 71.5
t0.5 70.5l4 100l-50 -116z" />
    <glyph glyph-name="ccedilla" unicode="&#xe7;" horiz-adv-x="694" 
d="M399 129q89 0 153 64q7 5 14 0l79 -81q7 -5 0 -11q-48 -48 -118 -79q30 -36 30 -83q0 -70 -51 -121t-122 -51q-73 0 -122.5 45t-49.5 115q0 8 10 8h92q9 0 9 -8q0 -25 17 -38t44 -13q25 0 42.5 18.5t17.5 44.5q0 24 -14.5 41t-35.5 20h1q-143 1 -244 102.5t-101 244.5
t102 245t247 102q146 0 246 -102q8 -6 0 -12l-79 -79q-7 -5 -14 0q-64 64 -153 64t-152.5 -63.5t-63.5 -154.5t63.5 -154.5t152.5 -63.5z" />
    <glyph glyph-name="egrave" unicode="&#xe8;" horiz-adv-x="588" 
d="M528 573h-323v-158h275q9 0 9 -8v-111q0 -8 -9 -8h-275v-158h332q10 0 10 -8v-114q0 -8 -10 -8h-456q-10 0 -10 8v684q0 8 10 8h447q10 0 10 -8v-111q0 -8 -10 -8zM444 823l-47 -79q-5 -7 -14 -3l-180 98q-10 2 -4 10l52 83q5 7 14 3l175 -101q9 -4 4 -11z" />
    <glyph glyph-name="eacute" unicode="&#xe9;" horiz-adv-x="588" 
d="M528 573h-323v-158h275q9 0 9 -8v-111q0 -8 -9 -8h-275v-158h332q10 0 10 -8v-114q0 -8 -10 -8h-456q-10 0 -10 8v684q0 8 10 8h447q10 0 10 -8v-111q0 -8 -10 -8zM242 745l-48 80q-6 8 4 10l186 102q9 4 14 -3l52 -82q4 -7 -4 -11l-190 -99q-9 -4 -14 3z" />
    <glyph glyph-name="ecircumflex" unicode="&#xea;" horiz-adv-x="588" 
d="M528 573h-323v-158h275q9 0 9 -8v-111q0 -8 -9 -8h-275v-158h332q10 0 10 -8v-114q0 -8 -10 -8h-456q-10 0 -10 8v684q0 8 10 8h447q10 0 10 -8v-111q0 -8 -10 -8zM192 751l-47 69q-6 8 3 12l166 96q5 2 10 0l169 -91q9 -4 4 -10l-44 -76q-5 -5 -14 -3l-120 68l-115 -68
q-7 -2 -12 3z" />
    <glyph glyph-name="edieresis" unicode="&#xeb;" horiz-adv-x="588" 
d="M528 573h-323v-158h275q9 0 9 -8v-111q0 -8 -9 -8h-275v-158h332q10 0 10 -8v-114q0 -8 -10 -8h-456q-10 0 -10 8v684q0 8 10 8h447q10 0 10 -8v-111q0 -8 -10 -8zM303 809q0 -29 -22.5 -50.5t-52.5 -21.5q-29 0 -51 21.5t-22 50.5t22 50.5t51 21.5q30 0 52.5 -21.5
t22.5 -50.5zM507 809q0 -29 -22 -50.5t-52 -21.5t-52 21.5t-22 50.5t22 50.5t52 21.5t52 -21.5t22 -50.5z" />
    <glyph glyph-name="igrave" unicode="&#xec;" horiz-adv-x="280" 
d="M72 8v684q0 8 10 8h113q10 0 10 -8v-684q0 -8 -10 -8h-113q-10 0 -10 8zM261 825l-47 -79q-5 -7 -14 -3l-180 98q-10 2 -4 10l52 83q5 7 14 3l175 -101q9 -4 4 -11z" />
    <glyph glyph-name="iacute" unicode="&#xed;" horiz-adv-x="280" 
d="M72 8v684q0 8 10 8h113q10 0 10 -8v-684q0 -8 -10 -8h-113q-10 0 -10 8zM59 748l-48 80q-6 8 4 10l186 102q9 4 14 -3l52 -82q4 -7 -4 -11l-190 -99q-9 -4 -14 3z" />
    <glyph glyph-name="icircumflex" unicode="&#xee;" horiz-adv-x="280" 
d="M72 8v684q0 8 10 8h113q10 0 10 -8v-684q0 -8 -10 -8h-113q-10 0 -10 8zM10 738l-47 69q-6 8 3 12l166 96q2 1 5 1t5 -1l169 -91q9 -4 4 -10l-44 -76q-5 -5 -14 -3l-120 68l-115 -68q-7 -2 -12 3z" />
    <glyph glyph-name="idieresis" unicode="&#xef;" horiz-adv-x="280" 
d="M72 8v684q0 8 10 8h113q10 0 10 -8v-684q0 -8 -10 -8h-113q-10 0 -10 8zM110 822q0 -29 -22.5 -50.5t-52.5 -21.5q-29 0 -51 21.5t-22 50.5t22 50.5t51 21.5q30 0 52.5 -21.5t22.5 -50.5zM314 822q0 -29 -22 -50.5t-52 -21.5t-52 21.5t-22 50.5t22 50.5t52 21.5t52 -21.5
t22 -50.5z" />
    <glyph glyph-name="eth" unicode="&#xf0;" horiz-adv-x="662" 
d="M81 694h114q406 0 406 -347q0 -85 -26.5 -149.5t-66.5 -101t-96.5 -59.5t-107.5 -30t-109 -7h-114q-9 0 -9 8v285h-64q-10 0 -10 8v92q0 8 10 8h64v285q0 8 9 8zM204 293v-168q6 -1 26 -1q27 0 53.5 3.5t61.5 17.5t60.5 36.5t43.5 65.5t18 100t-17.5 100t-42 65.5
t-58.5 36.5t-60 18t-54 4l-31 -1v-169h118q9 0 9 -8v-92q0 -8 -9 -8h-118zM204 118l-8 8q3 -1 8 -1v-7z" />
    <glyph glyph-name="ntilde" unicode="&#xf1;" horiz-adv-x="742" 
d="M661 692v-684q0 -8 -10 -8h-115q-6 0 -8 3l-322 461v-456q0 -8 -10 -8h-115q-9 0 -9 8v684q0 8 9 8h116q7 0 8 -3l323 -461v456q0 8 10 8h113q10 0 10 -8zM280 760l-79 22q-9 2 -7 9q7 52 36.5 78.5t73.5 26.5q42 0 83 -22h-3h2q2 -1 3 -1q20 -10 35 -10q16 0 26 23
q4 7 12 5l79 -25q10 -2 7 -9q-30 -101 -108 -101q-35 0 -85 21l-14 5q-20 9 -29 9q-12 0 -19 -25q-4 -8 -13 -6z" />
    <glyph glyph-name="ograve" unicode="&#xf2;" horiz-adv-x="797" 
d="M393 710q83 0 150 -30.5t109 -82t64 -115t22 -131.5t-22 -131.5t-64 -115t-109 -82.5t-150 -31q-111 0 -192 53.5t-118 133.5t-37 173q0 69 22 132t63.5 114.5t109.5 82t152 30.5zM393 117q99 0 154.5 69t55.5 163q0 95 -55.5 164.5t-154.5 69.5q-100 0 -155.5 -69.5
t-55.5 -164.5q0 -94 55.5 -163t155.5 -69zM518 823l-47 -79q-5 -7 -14 -3l-180 98q-10 2 -4 10l52 83q5 7 14 3l175 -101q9 -4 4 -11z" />
    <glyph glyph-name="oacute" unicode="&#xf3;" horiz-adv-x="797" 
d="M393 710q83 0 150 -30.5t109 -82t64 -115t22 -131.5t-22 -131.5t-64 -115t-109 -82.5t-150 -31q-111 0 -192 53.5t-118 133.5t-37 173q0 69 22 132t63.5 114.5t109.5 82t152 30.5zM393 117q99 0 154.5 69t55.5 163q0 95 -55.5 164.5t-154.5 69.5q-100 0 -155.5 -69.5
t-55.5 -164.5q0 -94 55.5 -163t155.5 -69zM324 745l-48 80q-6 8 4 10l186 102q9 4 14 -3l52 -82q4 -7 -4 -11l-190 -99q-9 -4 -14 3z" />
    <glyph glyph-name="ocircumflex" unicode="&#xf4;" horiz-adv-x="797" 
d="M393 710q83 0 150 -30.5t109 -82t64 -115t22 -131.5t-22 -131.5t-64 -115t-109 -82.5t-150 -31q-111 0 -192 53.5t-118 133.5t-37 173q0 69 22 132t63.5 114.5t109.5 82t152 30.5zM393 117q99 0 154.5 69t55.5 163q0 95 -55.5 164.5t-154.5 69.5q-100 0 -155.5 -69.5
t-55.5 -164.5q0 -94 55.5 -163t155.5 -69zM268 737l-47 69q-6 8 3 12l166 96q5 2 10 0l169 -91q9 -4 4 -10l-44 -76q-5 -5 -14 -3l-120 68l-115 -68q-7 -2 -12 3z" />
    <glyph glyph-name="otilde" unicode="&#xf5;" horiz-adv-x="797" 
d="M393 710q83 0 150 -30.5t109 -82t64 -115t22 -131.5t-22 -131.5t-64 -115t-109 -82.5t-150 -31q-111 0 -192 53.5t-118 133.5t-37 173q0 69 22 132t63.5 114.5t109.5 82t152 30.5zM393 117q99 0 154.5 69t55.5 163q0 95 -55.5 164.5t-154.5 69.5q-100 0 -155.5 -69.5
t-55.5 -164.5q0 -94 55.5 -163t155.5 -69zM311 766l-79 22q-9 2 -7 9q7 52 36.5 78.5t73.5 26.5q42 0 83 -22h-3q1 0 3 -0.5l2 -0.5q20 -10 35 -10q16 0 26 23q4 7 12 5l79 -25q10 -2 7 -9q-30 -101 -108 -101q-35 0 -85 21l-14 5q-20 9 -29 9q-12 0 -19 -25q-4 -8 -13 -6z
" />
    <glyph glyph-name="odieresis" unicode="&#xf6;" horiz-adv-x="797" 
d="M393 710q83 0 150 -30.5t109 -82t64 -115t22 -131.5t-22 -131.5t-64 -115t-109 -82.5t-150 -31q-111 0 -192 53.5t-118 133.5t-37 173q0 69 22 132t63.5 114.5t109.5 82t152 30.5zM393 117q99 0 154.5 69t55.5 163q0 95 -55.5 164.5t-154.5 69.5q-100 0 -155.5 -69.5
t-55.5 -164.5q0 -94 55.5 -163t155.5 -69zM368 820q0 -29 -22.5 -50.5t-52.5 -21.5q-29 0 -51 21.5t-22 50.5t22 50.5t51 21.5q30 0 52.5 -21.5t22.5 -50.5zM572 820q0 -29 -22 -50.5t-52 -21.5t-52 21.5t-22 50.5t22 50.5t52 21.5t52 -21.5t22 -50.5z" />
    <glyph glyph-name="divide" unicode="&#xf7;" horiz-adv-x="490" 
d="M445 287v109h-396v-109h396zM247 249q33 0 55.5 -22t22.5 -53t-22.5 -53t-55.5 -22q-32 0 -54.5 22t-22.5 53t22.5 53t54.5 22zM247 583q33 0 55.5 -22t22.5 -53q0 -32 -22.5 -54t-55.5 -22q-32 0 -54.5 22t-22.5 54q0 31 22.5 53t54.5 22z" />
    <glyph glyph-name="oslash" unicode="&#xf8;" horiz-adv-x="797" 
d="M391 703q62 0 118 -18l38 68q2 4 9 4h115q6 0 8.5 -3.5t0.5 -8.5l-66 -119q120 -100 120 -279q0 -68 -22 -130.5t-63 -113t-108 -80.5t-150 -30q-68 0 -123 20q-8 -15 -22 -39l-19 -33q-2 -4 -9 -4h-112q-6 0 -9 4t0 8l68 122q-57 51 -88 124.5t-31 152.5q0 92 37 171
t117.5 131.5t190.5 52.5zM391 118q99 0 154.5 68t55.5 161q0 101 -55 162l-215 -383q30 -8 60 -8zM391 577q-100 0 -155 -68.5t-55 -161.5q0 -98 51 -157l212 380q-28 7 -53 7z" />
    <glyph glyph-name="ugrave" unicode="&#xf9;" horiz-adv-x="683" 
d="M336 -10q-112 0 -188 64.5t-76 170.5v461q0 8 10 8h113q10 0 10 -8v-460q6 -51 43 -79t88 -28q54 0 92.5 28t38.5 78v461q0 8 10 8h114q9 0 9 -8v-461q0 -109 -74 -172t-190 -63zM448 811l-47 -79q-5 -7 -14 -3l-180 98q-10 2 -4 10l52 83q5 7 14 3l175 -101q9 -4 4 -11z
" />
    <glyph glyph-name="uacute" unicode="&#xfa;" horiz-adv-x="683" 
d="M336 -10q-112 0 -188 64.5t-76 170.5v461q0 8 10 8h113q10 0 10 -8v-460q6 -51 43 -79t88 -28q54 0 92.5 28t38.5 78v461q0 8 10 8h114q9 0 9 -8v-461q0 -109 -74 -172t-190 -63zM268 729l-48 80q-6 8 4 10l186 102q9 4 14 -3l52 -82q4 -7 -4 -11l-190 -99q-9 -4 -14 3z
" />
    <glyph glyph-name="ucircumflex" unicode="&#xfb;" horiz-adv-x="683" 
d="M336 -10q-112 0 -188 64.5t-76 170.5v461q0 8 10 8h113q10 0 10 -8v-460q6 -51 43 -79t88 -28q54 0 92.5 28t38.5 78v461q0 8 10 8h114q9 0 9 -8v-461q0 -109 -74 -172t-190 -63zM211 735l-47 69q-6 8 3 12l166 96q5 2 10 0l169 -91q9 -4 4 -10l-44 -76q-5 -5 -14 -3
l-120 68l-115 -68q-7 -2 -12 3z" />
    <glyph glyph-name="udieresis" unicode="&#xfc;" horiz-adv-x="683" 
d="M336 -10q-112 0 -188 64.5t-76 170.5v461q0 8 10 8h113q10 0 10 -8v-460q6 -51 43 -79t88 -28q54 0 92.5 28t38.5 78v461q0 8 10 8h114q9 0 9 -8v-461q0 -109 -74 -172t-190 -63zM311 810q0 -29 -22.5 -50.5t-52.5 -21.5q-29 0 -51 21.5t-22 50.5t22 50.5t51 21.5
q30 0 52.5 -21.5t22.5 -50.5zM515 810q0 -29 -22 -50.5t-52 -21.5t-52 21.5t-22 50.5t22 50.5t52 21.5t52 -21.5t22 -50.5z" />
    <glyph glyph-name="yacute" unicode="&#xfd;" horiz-adv-x="645" 
d="M489 700h139q7 0 9.5 -4t-1.5 -9l-253 -360v-319q0 -8 -10 -8h-113q-10 0 -10 8v319l-253 360q-4 5 -1.5 9t9.5 4h139q6 0 7 -3l166 -237l165 237q2 3 7 3zM245 737l-48 80q-6 8 4 10l186 102q9 4 14 -3l52 -82q4 -7 -4 -11l-190 -99q-9 -4 -14 3z" />
    <glyph glyph-name="thorn" unicode="&#xfe;" horiz-adv-x="580" 
d="M308 562q5 0 13.5 -0.5t33 -4.5t47 -11t50 -22.5t47 -36.5t33 -55t13.5 -76q0 -58 -24.5 -100.5t-59.5 -62t-69.5 -31t-59.5 -12.5l-24 -1h-104v-143q0 -8 -9 -8h-114q-9 0 -9 8v680q0 8 9 8h114q9 0 9 -8v-124h104zM308 278q4 0 11 0.5t25 4.5t32 11.5t25 23.5t11 38
q0 34 -26 53.5t-52 21.5l-26 2h-104v-155h104z" />
    <glyph glyph-name="ydieresis" unicode="&#xff;" horiz-adv-x="645" 
d="M489 700h139q7 0 9.5 -4t-1.5 -9l-253 -360v-319q0 -8 -10 -8h-113q-10 0 -10 8v319l-253 360q-4 5 -1.5 9t9.5 4h139q6 0 7 -3l166 -237l165 237q2 3 7 3zM292 809q0 -29 -22.5 -50.5t-52.5 -21.5q-29 0 -51 21.5t-22 50.5t22 50.5t51 21.5q30 0 52.5 -21.5t22.5 -50.5z
M496 809q0 -29 -22 -50.5t-52 -21.5t-52 21.5t-22 50.5t22 50.5t52 21.5t52 -21.5t22 -50.5z" />
    <glyph glyph-name="Abreve" unicode="&#x102;" 
d="M418 5l-29 74h-227l-27 -74q-2 -5 -9 -5h-123q-6 0 -8.5 3t-0.5 8l273 704q2 5 9 5t9 -5l273 -704q2 -4 -0.5 -7.5t-7.5 -3.5h-124q-6 0 -8 5zM276 407l-71 -210h141zM338 891h89q9 0 9 -8q0 -80 -42.5 -117.5t-111.5 -37.5q-70 0 -117.5 38t-47.5 117q0 8 9 8h89
q10 0 10 -8q1 -27 16 -42t35 -15t35.5 15t16.5 42q0 8 10 8z" />
    <glyph glyph-name="abreve" unicode="&#x103;" 
d="M418 5l-29 74h-227l-27 -74q-2 -5 -9 -5h-123q-6 0 -8.5 3t-0.5 8l273 704q2 5 9 5t9 -5l273 -704q2 -4 -0.5 -7.5t-7.5 -3.5h-124q-6 0 -8 5zM276 407l-71 -210h141zM339 887h89q9 0 9 -8q0 -80 -42.5 -117.5t-111.5 -37.5q-70 0 -117.5 38t-47.5 117q0 8 9 8h89
q10 0 10 -8q1 -27 16 -42t35 -15t35.5 15t16.5 42q0 8 10 8z" />
    <glyph glyph-name="Aogonek" unicode="&#x104;" 
d="M559 11l-8 -11q-52 -4 -73 -31.5t-7 -51.5q11 -20 33 -20q28 0 63 23q10 6 15 -5l25 -76q2 -5 -4 -9q-50 -34 -120 -34q-100 0 -125 86q-5 17 -5 34q0 54 59 103l-22 60h-227l-28 -74q-2 -5 -8 -5h-124q-13 0 -8 11l272 704q2 5 9 5t9 -5zM276 394l-70 -200h141z" />
    <glyph glyph-name="aogonek" unicode="&#x105;" 
d="M555 11l-8 -11q-51 -4 -72 -31t-7 -51q11 -20 33 -20q27 0 62 23q11 4 15 -5l25 -76q2 -5 -4 -9q-51 -34 -119 -34q-44 0 -77.5 21t-46.5 65q-4 20 -4 34q0 55 58 101l-23 60h-224l-27 -73q-2 -5 -9 -5h-122q-6 0 -8.5 3t-0.5 8l270 697q2 5 9 5t9 -5zM275 391l-70 -199
h140z" />
    <glyph glyph-name="Cacute" unicode="&#x106;" horiz-adv-x="694" 
d="M401 120q89 0 154 65q7 5 14 0l80 -81q8 -6 0 -12q-100 -102 -248 -102q-149 0 -251 99.5t-102 260.5q0 158 99 259t254 101q148 0 248 -103q8 -6 0 -12l-80 -80q-7 -5 -14 0q-65 65 -154 65q-100 0 -158.5 -64t-58.5 -166q0 -104 62 -167t155 -63zM314 749l-48 80
q-6 8 4 10l186 102q9 4 14 -3l52 -82q4 -7 -4 -11l-190 -99q-9 -4 -14 3z" />
    <glyph glyph-name="cacute" unicode="&#x107;" horiz-adv-x="694" 
d="M399 119q89 0 153 64q7 5 14 0l79 -80q8 -6 0 -12q-101 -101 -246 -101q-148 0 -249 98.5t-101 258.5q0 157 98.5 260t251.5 103q147 0 246 -101q8 -6 0 -12l-79 -79q-7 -5 -14 0q-66 64 -153 64q-98 0 -156.5 -66.5t-58.5 -168.5q0 -103 61.5 -165.5t153.5 -62.5z
M327 746l-48 80q-6 8 4 10l186 102q9 4 14 -3l52 -82q4 -7 -4 -11l-190 -99q-9 -4 -14 3z" />
    <glyph glyph-name="Ccaron" unicode="&#x10c;" horiz-adv-x="694" 
d="M401 120q89 0 154 65q7 5 14 0l80 -81q8 -6 0 -12q-100 -102 -248 -102q-149 0 -251 99.5t-102 260.5q0 158 99 259t254 101q148 0 248 -103q8 -6 0 -12l-80 -80q-7 -5 -14 0q-65 65 -154 65q-100 0 -158.5 -64t-58.5 -166q0 -104 62 -167t155 -63zM522 922l47 -68
q6 -8 -3 -12l-166 -97h-10l-169 91q-9 4 -4 11l44 75q5 7 13 3l121 -67l114 67q7 3 13 -3z" />
    <glyph glyph-name="ccaron" unicode="&#x10d;" horiz-adv-x="694" 
d="M399 119q89 0 153 64q7 5 14 0l79 -80q8 -6 0 -12q-101 -101 -246 -101q-148 0 -249 98.5t-101 258.5q0 157 98.5 260t251.5 103q147 0 246 -101q8 -6 0 -12l-79 -79q-7 -5 -14 0q-66 64 -153 64q-98 0 -156.5 -66.5t-58.5 -168.5q0 -103 61.5 -165.5t153.5 -62.5z
M529 921l47 -68q6 -8 -3 -12l-166 -97h-10l-169 91q-9 4 -4 11l44 75q5 7 13 3l121 -67l114 67q7 3 13 -3z" />
    <glyph glyph-name="Dcaron" unicode="&#x10e;" horiz-adv-x="662" 
d="M81 700h114q41 0 77 -3t79 -12t77.5 -24.5t68.5 -42.5t57 -62.5t37 -88t14 -117.5q0 -86 -26.5 -151t-67 -102t-97.5 -59.5t-108.5 -30t-110.5 -7.5h-114q-10 0 -10 8v684q0 8 10 8zM205 572v-443q32 -2 61 0t68.5 14t67.5 34.5t48 67t20 105.5q0 119 -72 173.5
t-193 48.5zM421 922l47 -68q6 -8 -3 -12l-166 -97h-10l-169 91q-9 4 -4 11l44 75q5 7 13 3l121 -67l114 67q7 3 13 -3z" />
    <glyph glyph-name="dcaron" unicode="&#x10f;" horiz-adv-x="662" 
d="M82 700h113q406 0 406 -348q0 -85 -26 -150t-66.5 -102.5t-96.5 -61t-107.5 -31t-109.5 -7.5h-113q-10 0 -10 8v684q0 8 10 8zM205 576v-451q31 -1 60.5 1.5t68 15.5t66.5 36t48 68t20 106q0 130 -69.5 180.5t-193.5 43.5zM405 925l47 -68q6 -8 -3 -12l-166 -97h-10
l-169 91q-9 4 -4 11l44 75q5 7 13 3l121 -67l114 67q7 3 13 -3z" />
    <glyph glyph-name="Dcroat" unicode="&#x110;" horiz-adv-x="662" 
d="M6 295v102q0 8 10 8h55v287q0 8 10 8h114q410 0 410 -350q0 -86 -26.5 -151t-67 -102t-97.5 -59.5t-108.5 -30t-110.5 -7.5h-114q-10 0 -10 8v279h-55q-10 0 -10 8zM205 287v-161q6 -1 26 -1q28 0 54.5 3.5t61.5 17.5t61 37t44 66.5t18 100.5t-17.5 100.5t-42.5 66.5
t-59.5 37t-61 18t-53.5 4l-31 -1v-170h121q10 0 10 -8v-102q0 -8 -10 -8h-121z" />
    <glyph glyph-name="dcroat" unicode="&#x111;" horiz-adv-x="633" 
d="M8 293v100q0 8 9 8h55v285q0 8 9 8h114q406 0 406 -347q0 -85 -26.5 -149.5t-66.5 -101t-96.5 -59.5t-107.5 -30t-109 -7h-114q-9 0 -9 8v277h-55q-9 0 -9 8zM204 285v-160q6 -1 27 -1q27 0 53 3.5t61 17.5t60.5 36.5t43.5 65.5t18 100t-17.5 100t-42 65.5t-58.5 36.5
t-60 18t-54 4l-31 -1v-169h121q9 0 9 -8v-100q0 -8 -9 -8h-121z" />
    <glyph glyph-name="Eogonek" unicode="&#x118;" horiz-adv-x="588" 
d="M538 570h-333v-155h275q10 0 10 -8v-114q0 -8 -10 -8h-275v-155h333q9 0 9 -8v-114q0 -8 -9 -8q-53 0 -74 -29t-8 -54q11 -20 34 -20q29 0 62 23q12 6 16 -5l24 -76q2 -5 -5 -9q-52 -35 -122 -35q-44 0 -77 20.5t-46 62.5q-5 17 -5 31q0 57 45 91h-301q-10 0 -10 8v684
q0 8 10 8h457q9 0 9 -8v-114q0 -8 -9 -8z" />
    <glyph glyph-name="eogonek" unicode="&#x119;" horiz-adv-x="588" 
d="M538 570h-333v-155h275q10 0 10 -8v-114q0 -8 -10 -8h-275v-155h333q9 0 9 -8v-114q0 -8 -9 -8q-53 0 -74 -29t-8 -54q11 -20 34 -20q29 0 62 23q12 6 16 -5l24 -76q2 -5 -5 -9q-52 -35 -122 -35q-44 0 -77 20.5t-46 62.5q-5 17 -5 31q0 57 45 91h-301q-10 0 -10 8v684
q0 8 10 8h457q9 0 9 -8v-114q0 -8 -9 -8z" />
    <glyph glyph-name="Ecaron" unicode="&#x11a;" horiz-adv-x="588" 
d="M528 573h-323v-158h275q9 0 9 -8v-111q0 -8 -9 -8h-275v-158h332q10 0 10 -8v-114q0 -8 -10 -8h-456q-10 0 -10 8v684q0 8 10 8h447q10 0 10 -8v-111q0 -8 -10 -8zM447 910l47 -68q6 -8 -3 -12l-166 -97h-10l-169 91q-9 4 -4 11l44 75q5 7 13 3l121 -67l114 67q7 3 13 -3
z" />
    <glyph glyph-name="ecaron" unicode="&#x11b;" horiz-adv-x="588" 
d="M534 573h-330v-162h273q9 0 9 -8v-109q0 -8 -9 -8h-273v-160h330q10 0 10 -8v-110q0 -8 -10 -8h-453q-9 0 -9 8v684q0 8 9 8h453q10 0 10 -8v-111q0 -8 -10 -8zM442 907l47 -68q6 -8 -3 -12l-166 -97h-10l-169 91q-9 4 -4 11l44 75q5 7 13 3l121 -67l114 67q7 3 13 -3z
" />
    <glyph glyph-name="Lacute" unicode="&#x139;" horiz-adv-x="501" 
d="M204 130h244q10 0 10 -8v-114q0 -8 -10 -8h-368q-10 0 -10 8v684q0 8 10 8h115q9 0 9 -8v-562zM68 731l-48 80q-6 8 4 10l186 102q9 4 14 -3l52 -82q4 -7 -4 -11l-190 -99q-9 -4 -14 3z" />
    <glyph glyph-name="lacute" unicode="&#x13a;" horiz-adv-x="501" 
d="M204 129h241q10 0 10 -8v-113q0 -8 -10 -8h-364q-10 0 -10 8v684q0 8 10 8h113q10 0 10 -8v-563zM79 736l-48 80q-6 8 4 10l186 102q9 4 14 -3l52 -82q4 -7 -4 -11l-190 -99q-9 -4 -14 3z" />
    <glyph glyph-name="Lcaron" unicode="&#x13d;" horiz-adv-x="501" 
d="M204 130h244q10 0 10 -8v-114q0 -8 -10 -8h-368q-10 0 -10 8v684q0 8 10 8h115q9 0 9 -8v-562zM369 714q40 0 59.5 -21.5t19.5 -55.5q0 -39 -22 -81.5t-52 -61.5q-5 -3 -10 -0.5t-5 7.5v76q-25 3 -42.5 23t-17.5 46q0 28 20.5 48t49.5 20z" />
    <glyph glyph-name="lcaron" unicode="&#x13e;" horiz-adv-x="501" 
d="M204 130h244q10 0 10 -8v-114q0 -8 -10 -8h-368q-10 0 -10 8v684q0 8 10 8h115q9 0 9 -8v-562zM369 714q40 0 59.5 -21.5t19.5 -55.5q0 -39 -22 -81.5t-52 -61.5q-5 -3 -10 -0.5t-5 7.5v76q-25 3 -42.5 23t-17.5 46q0 28 20.5 48t49.5 20z" />
    <glyph glyph-name="Lslash" unicode="&#x141;" horiz-adv-x="501" 
d="M204 130h243q10 0 10 -8v-114q0 -8 -10 -8h-367q-10 0 -10 8v228l-57 -19q-12 -3 -12 8v99q0 5 6 7l63 21v340q0 8 10 8h114q10 0 10 -8v-296l95 30q5 1 9 -1t4 -7v-98q0 -6 -7 -8l-101 -32v-150z" />
    <glyph glyph-name="lslash" unicode="&#x142;" horiz-adv-x="490" 
d="M204 130h243q10 0 10 -8v-114q0 -8 -10 -8h-367q-10 0 -10 8v228l-57 -19q-12 -3 -12 8v99q0 5 6 7l63 21v340q0 8 10 8h114q10 0 10 -8v-296l95 30q5 1 9 -1t4 -7v-98q0 -6 -7 -8l-101 -32v-150z" />
    <glyph glyph-name="Nacute" unicode="&#x143;" horiz-adv-x="742" 
d="M661 692v-684q0 -8 -10 -8h-115q-6 0 -8 3l-322 461v-456q0 -8 -10 -8h-115q-9 0 -9 8v684q0 8 9 8h116q7 0 8 -3l323 -461v456q0 8 10 8h113q10 0 10 -8zM292 728l-49 82q-6 8 4 10l189 105q9 3 15 -3l52 -84q3 -8 -4 -12l-193 -101q-9 -4 -14 3z" />
    <glyph glyph-name="nacute" unicode="&#x144;" horiz-adv-x="742" 
d="M657 693v-685q0 -8 -10 -8h-114q-7 0 -8 3l-320 466v-461q0 -8 -9 -8h-114q-9 0 -9 8v685q0 8 9 8h115q5 0 7 -3l321 -470v465q0 8 10 8h112q10 0 10 -8zM292 729l-48 80q-6 8 4 10l186 102q9 4 14 -3l52 -82q4 -7 -4 -11l-190 -99q-9 -4 -14 3z" />
    <glyph glyph-name="Ncaron" unicode="&#x147;" horiz-adv-x="742" 
d="M661 692v-684q0 -8 -10 -8h-115q-6 0 -8 3l-322 461v-456q0 -8 -10 -8h-115q-9 0 -9 8v684q0 8 9 8h116q7 0 8 -3l323 -461v456q0 8 10 8h113q10 0 10 -8zM496 906l47 -68q6 -8 -3 -12l-166 -97h-10l-169 91q-9 4 -4 11l44 75q5 7 13 3l121 -67l114 67q7 3 13 -3z" />
    <glyph glyph-name="ncaron" unicode="&#x148;" horiz-adv-x="742" 
d="M657 693v-685q0 -8 -10 -8h-114q-7 0 -8 3l-320 466v-461q0 -8 -9 -8h-114q-9 0 -9 8v685q0 8 9 8h115q5 0 7 -3l321 -470v465q0 8 10 8h112q10 0 10 -8zM496 897l47 -68q6 -8 -3 -12l-166 -97h-10l-169 91q-9 4 -4 11l44 75q5 7 13 3l121 -67l114 67q7 3 13 -3z" />
    <glyph glyph-name="Ohungarumlaut" unicode="&#x150;" horiz-adv-x="638" 
d="M313 186q-109 0 -186.5 77t-77.5 185q0 107 77.5 184.5t186.5 77.5t186.5 -77.5t77.5 -184.5q0 -108 -77.5 -185t-186.5 -77zM313 581q-54 0 -92.5 -39t-38.5 -94q0 -56 38.5 -94.5t92.5 -38.5q55 0 93 38.5t38 94.5t-38 94.5t-93 38.5zM546 121v-113q0 -8 -10 -8h-451
q-10 0 -10 8v113q0 8 10 8h451q10 0 10 -8zM203 738l-56 52q-7 6 0 11l131 116q7 5 14 0l59 -53q8 -6 0 -10l-135 -116q-6 -4 -13 0zM404 730l-56 56q-7 6 0 11l131 117q7 4 14 0l61 -59q8 -4 0 -10l-136 -115q-7 -4 -14 0z" />
    <glyph glyph-name="ohungarumlaut" unicode="&#x151;" horiz-adv-x="797" 
d="M393 710q83 0 150 -30.5t109 -82t64 -115t22 -131.5t-22 -131.5t-64 -115t-109 -82.5t-150 -31q-111 0 -192 53.5t-118 133.5t-37 173q0 69 22 132t63.5 114.5t109.5 82t152 30.5zM393 117q99 0 154.5 69t55.5 163q0 95 -55.5 164.5t-154.5 69.5q-100 0 -155.5 -69.5
t-55.5 -164.5q0 -94 55.5 -163t155.5 -69zM279 738l-58 54q-8 6 0 12l135 121q7 5 14 0l62 -56q8 -6 0 -10l-140 -121q-6 -4 -13 0zM486 729l-57 59q-8 6 0 12l134 121q7 5 15 0l62 -61q8 -4 0 -10l-139 -121q-8 -3 -15 0z" />
    <glyph glyph-name="OE" unicode="&#x152;" horiz-adv-x="946" 
d="M860 575h-270v-160h226q10 0 10 -8v-109q0 -8 -10 -8h-226v-162h283q10 0 10 -8v-112q0 -8 -10 -8l-399 1q-38 -8 -81 -8q-107 0 -185.5 53t-115 132.5t-36.5 172.5t36.5 172.5t115 132.5t185.5 53q42 0 85 -9h382q10 0 10 -8v-109q0 -8 -10 -8zM393 109q38 0 69 10v462
q-35 10 -69 10q-92 0 -143.5 -71.5t-51.5 -169.5t51.5 -169.5t143.5 -71.5z" />
    <glyph glyph-name="oe" unicode="&#x153;" horiz-adv-x="946" 
d="M854 570h-267v-159h224q9 0 9 -8v-107q0 -8 -9 -8h-224v-161h281q10 0 10 -8v-111q0 -8 -10 -8l-396 1q-38 -8 -80 -8q-106 0 -184 52.5t-114 131.5t-36 171t36 171t114 131.5t184 52.5q41 0 84 -9h378q10 0 10 -8v-108q0 -8 -10 -8zM392 109q41 0 68 9v458
q-40 10 -68 10q-91 0 -142.5 -71t-51.5 -168t51.5 -167.5t142.5 -70.5z" />
    <glyph glyph-name="Racute" unicode="&#x154;" horiz-adv-x="612" 
d="M574 0h-134q-7 0 -9 4l-176 281h-49v-277q0 -8 -10 -8h-114q-10 0 -10 8v399q0 8 10 8h93l-103 162v115q0 8 10 8h228q5 0 13.5 -0.5t33.5 -4.5t47.5 -11t49.5 -22.5t47 -36.5t33.5 -55.5t13.5 -76.5q0 -148 -147 -193l180 -288q3 -4 0.5 -8t-7.5 -4zM226 570l97 -154
q36 1 63.5 19t27.5 58q0 77 -104 77h-84zM217 738l-48 80q-6 8 4 10l186 102q9 4 14 -3l52 -82q4 -7 -4 -11l-190 -99q-9 -4 -14 3z" />
    <glyph glyph-name="racute" unicode="&#x155;" horiz-adv-x="599" 
d="M407 5l-128 278h-75v-275q0 -8 -10 -8h-114q-9 0 -9 8v684q0 8 9 8h226q21 0 41 -1.5t59 -13t66 -31t49 -62t22 -100.5q0 -142 -129 -188l135 -293q5 -11 -8 -11h-125q-6 0 -9 5zM204 573v-162h102q104 0 104 81q0 27 -12.5 45t-32.5 25t-33 9t-26 2h-102zM212 732
l-48 80q-6 8 4 10l186 102q9 4 14 -3l52 -82q4 -7 -4 -11l-190 -99q-9 -4 -14 3z" />
    <glyph glyph-name="Rcaron" unicode="&#x158;" horiz-adv-x="612" 
d="M574 0h-134q-7 0 -9 4l-176 281h-49v-277q0 -8 -10 -8h-114q-10 0 -10 8v399q0 8 10 8h93l-103 162v115q0 8 10 8h228q5 0 13.5 -0.5t33.5 -4.5t47.5 -11t49.5 -22.5t47 -36.5t33.5 -55.5t13.5 -76.5q0 -148 -147 -193l180 -288q3 -4 0.5 -8t-7.5 -4zM226 570l97 -154
q36 1 63.5 19t27.5 58q0 77 -104 77h-84zM419 910l47 -68q6 -8 -3 -12l-166 -97h-10l-169 91q-9 4 -4 11l44 75q5 7 13 3l121 -67l114 67q7 3 13 -3z" />
    <glyph glyph-name="rcaron" unicode="&#x159;" horiz-adv-x="599" 
d="M407 5l-128 278h-75v-275q0 -8 -10 -8h-114q-9 0 -9 8v684q0 8 9 8h226q21 0 41 -1.5t59 -13t66 -31t49 -62t22 -100.5q0 -142 -129 -188l135 -293q5 -11 -8 -11h-125q-6 0 -9 5zM204 573v-162h102q104 0 104 81q0 27 -12.5 45t-32.5 25t-33 9t-26 2h-102zM423 905
l47 -68q6 -8 -3 -12l-166 -97h-10l-169 91q-9 4 -4 11l44 75q5 7 13 3l121 -67l114 67q7 3 13 -3z" />
    <glyph glyph-name="Sacute" unicode="&#x15a;" horiz-adv-x="543" 
d="M270 -10q-97 2 -160 56.5t-64 150.5q0 8 10 8h114q10 0 10 -8q1 -37 27 -57t63 -20t63.5 22.5t26.5 57.5q0 37 -28 61t-62 26q-55 0 -107 24q-117 55 -117 182q0 97 66.5 157t157.5 60q93 0 156.5 -57.5t64.5 -147.5q0 -7 -10 -7h-113q-10 0 -10 7q-1 37 -26 56t-62 19
q-39 0 -64.5 -22.5t-25.5 -64.5q0 -37 26.5 -58t63.5 -21q55 0 106 -24q56 -26 86.5 -76t30.5 -114q0 -97 -66 -153.5t-157 -56.5zM195 745l-48 80q-6 8 4 10l186 102q9 4 14 -3l52 -82q4 -7 -4 -11l-190 -99q-9 -4 -14 3z" />
    <glyph glyph-name="sacute" unicode="&#x15b;" horiz-adv-x="543" 
d="M269 -10q-96 2 -158.5 56t-63.5 150q0 7 10 7h113q10 0 10 -7q1 -37 26.5 -57t62.5 -20t63 21.5t26 57.5q0 37 -28 61t-61 26q-55 0 -106 23q-55 26 -85.5 75t-30.5 111q0 97 66 156t156 59q93 0 155.5 -56.5t63.5 -145.5q0 -8 -10 -8h-112q-10 0 -10 8q-1 36 -25.5 55
t-61.5 19q-39 0 -64 -22.5t-25 -64.5q0 -37 26.5 -60.5t62.5 -23.5q54 0 104 -23q56 -26 86.5 -76t30.5 -113q0 -97 -65 -152.5t-156 -55.5zM193 731l-48 80q-6 8 4 10l186 102q9 4 14 -3l52 -82q4 -7 -4 -11l-190 -99q-9 -4 -14 3z" />
    <glyph glyph-name="Scedilla" unicode="&#x15e;" horiz-adv-x="543" 
d="M281 -227q-69 0 -118 48t-49 114q0 8 9 8h89q10 0 10 -8q0 -24 17 -41t42 -17q24 0 40.5 17t16.5 41q0 25 -16.5 41.5t-40.5 16.5h-11q-97 2 -160 56.5t-64 150.5q0 8 10 8h114q10 0 10 -8q1 -37 27 -57t63 -20t63.5 21t26.5 56q0 37 -28 61t-62 26q-55 0 -107 24
q-117 55 -117 182q0 97 66.5 156t157.5 59q93 0 156.5 -57.5t64.5 -147.5q0 -7 -10 -7h-113q-10 0 -10 7q-1 37 -26 56t-62 19q-39 0 -64.5 -22t-25.5 -63q0 -37 26.5 -58t63.5 -21q55 0 106 -24q56 -26 86.5 -76t30.5 -114q0 -113 -90 -171q45 -34 45 -94q0 -66 -49 -114
t-118 -48z" />
    <glyph glyph-name="scedilla" unicode="&#x15f;" horiz-adv-x="543" 
d="M281 -227q-69 0 -118 48t-49 114q0 8 9 8h89q10 0 10 -8q0 -24 17 -41t42 -17q24 0 40.5 17t16.5 41q0 25 -16.5 41.5t-40.5 16.5h-11q-97 2 -160 56.5t-64 150.5q0 8 10 8h114q10 0 10 -8q1 -37 27 -57t63 -20t63.5 21t26.5 56q0 37 -28 61t-62 26q-55 0 -107 24
q-117 55 -117 182q0 97 66.5 156t157.5 59q93 0 156.5 -57.5t64.5 -147.5q0 -7 -10 -7h-113q-10 0 -10 7q-1 37 -26 56t-62 19q-39 0 -64.5 -22t-25.5 -63q0 -37 26.5 -58t63.5 -21q55 0 106 -24q56 -26 86.5 -76t30.5 -114q0 -113 -90 -171q45 -34 45 -94q0 -66 -49 -114
t-118 -48z" />
    <glyph glyph-name="Scaron" unicode="&#x160;" horiz-adv-x="543" 
d="M270 -10q-97 2 -160 56.5t-64 150.5q0 8 10 8h114q10 0 10 -8q1 -37 27 -57t63 -20t63.5 22.5t26.5 57.5q0 37 -28 61t-62 26q-55 0 -107 24q-117 55 -117 182q0 97 66.5 157t157.5 60q93 0 156.5 -57.5t64.5 -147.5q0 -7 -10 -7h-113q-10 0 -10 7q-1 37 -26 56t-62 19
q-39 0 -64.5 -22.5t-25.5 -64.5q0 -37 26.5 -58t63.5 -21q55 0 106 -24q56 -26 86.5 -76t30.5 -114q0 -97 -66 -153.5t-157 -56.5zM404 926l47 -68q6 -8 -3 -12l-166 -97h-10l-169 91q-9 4 -4 11l44 75q5 7 13 3l121 -67l114 67q7 3 13 -3z" />
    <glyph glyph-name="scaron" unicode="&#x161;" horiz-adv-x="543" 
d="M270 -10q-97 2 -160 56.5t-64 150.5q0 8 10 8h114q10 0 10 -8q1 -37 27 -57t63 -20t63.5 22.5t26.5 57.5q0 37 -28 61t-62 26q-55 0 -107 24q-117 55 -117 182q0 97 66.5 157t157.5 60q93 0 156.5 -57.5t64.5 -147.5q0 -7 -10 -7h-113q-10 0 -10 7q-1 37 -26 56t-62 19
q-39 0 -64.5 -22.5t-25.5 -64.5q0 -37 26.5 -58t63.5 -21q55 0 106 -24q56 -26 86.5 -76t30.5 -114q0 -97 -66 -153.5t-157 -56.5zM399 920l46 -66q6 -8 -3 -12l-163 -95h-9l-166 89q-8 4 -3 11l43 73q5 7 12 3l119 -66l111 66q7 3 13 -3z" />
    <glyph glyph-name="uni0162" unicode="&#x162;" horiz-adv-x="448" 
d="M433 692v-104q0 -8 -10 -8h-134v-572q0 -8 -10 -8h-113q-10 0 -10 8v572h-134q-10 0 -10 8v104q0 8 10 8h401q10 0 10 -8zM222 -22q41 0 60.5 -20t19.5 -53q0 -37 -22 -77.5t-53 -57.5q-5 -3 -10 -1t-5 7v72q-25 3 -42.5 22t-17.5 44q0 26 20.5 45t49.5 19z" />
    <glyph glyph-name="uni0163" unicode="&#x163;" horiz-adv-x="448" 
d="M430 686v-104q0 -7 -10 -7h-133v-567q0 -8 -9 -8h-113q-9 0 -9 8v567h-133q-10 0 -10 7v104q0 8 10 8h397q10 0 10 -8zM222 -23q41 0 60.5 -20t19.5 -53q0 -37 -22 -77.5t-53 -57.5q-5 -3 -10 -1t-5 7v72q-25 3 -42.5 22t-17.5 44q0 26 20.5 45t49.5 19z" />
    <glyph glyph-name="Tcaron" unicode="&#x164;" horiz-adv-x="448" 
d="M433 692v-104q0 -8 -10 -8h-134v-572q0 -8 -10 -8h-113q-10 0 -10 8v572h-134q-10 0 -10 8v104q0 8 10 8h401q10 0 10 -8zM350 924l47 -68q6 -8 -3 -12l-166 -97h-10l-169 91q-9 4 -4 11l44 75q5 7 13 3l121 -67l114 67q7 3 13 -3z" />
    <glyph glyph-name="tcaron" unicode="&#x165;" horiz-adv-x="448" 
d="M430 686v-104q0 -7 -10 -7h-133v-567q0 -8 -9 -8h-113q-9 0 -9 8v567h-133q-10 0 -10 7v104q0 8 10 8h397q10 0 10 -8zM349 911l47 -68q6 -8 -3 -12l-166 -97h-10l-169 91q-9 4 -4 11l44 75q5 7 13 3l121 -67l114 67q7 3 13 -3z" />
    <glyph glyph-name="Uring" unicode="&#x16e;" horiz-adv-x="740" 
d="M81 700h569q10 0 10 -8v-409q0 -73 -35 -143q-37 -72 -103.5 -111t-155.5 -39t-156 38.5t-103 111.5q-35 70 -35 143v409q0 8 9 8zM504 196q23 44 23 88v296h-322v-297q1 -45 23 -87q40 -76 138 -76t138 76zM374 733q-58 0 -101 37.5t-43 88.5q0 52 42.5 89t101.5 37
t101 -37t42 -89q0 -51 -42.5 -88.5t-100.5 -37.5zM374 903q-18 0 -32 -13t-14 -31t14 -30t32 -12q19 0 32 12t13 30t-13 31t-32 13z" />
    <glyph glyph-name="uring" unicode="&#x16f;" horiz-adv-x="683" 
d="M336 -10q-112 0 -188 64.5t-76 170.5v461q0 8 10 8h113q10 0 10 -8v-460q6 -51 43 -79t88 -28q54 0 92.5 28t38.5 78v461q0 8 10 8h114q9 0 9 -8v-461q0 -109 -74 -172t-190 -63zM337 719q-57 0 -98 36.5t-41 86.5t41 86.5t98 36.5t98 -36.5t41 -86.5t-41 -86.5
t-98 -36.5zM337 884q-18 0 -31 -12.5t-13 -29.5q0 -18 13 -30t31 -12q19 0 31.5 12t12.5 30q0 17 -12.5 29.5t-31.5 12.5z" />
    <glyph glyph-name="Uhungarumlaut" unicode="&#x170;" horiz-adv-x="740" 
d="M81 700h569q10 0 10 -8v-409q0 -73 -35 -143q-37 -72 -103.5 -111t-155.5 -39t-156 38.5t-103 111.5q-35 70 -35 143v409q0 8 9 8zM504 196q23 44 23 88v296h-322v-297q1 -45 23 -87q40 -76 138 -76t138 76zM241 746l-54 50q-3 2 -3 6t3 5l126 115q7 4 14 0l58 -53
q7 -5 0 -10l-132 -113q-4 -4 -12 0zM436 737l-54 56q-7 6 0 11l126 114q7 5 14 0l59 -57q7 -5 0 -10l-132 -114q-6 -2 -13 0z" />
    <glyph glyph-name="uhungarumlaut" unicode="&#x171;" horiz-adv-x="683" 
d="M336 -10q-112 0 -188 64.5t-76 170.5v461q0 8 10 8h113q10 0 10 -8v-460q6 -51 43 -79t88 -28q54 0 92.5 28t38.5 78v461q0 8 10 8h114q9 0 9 -8v-461q0 -109 -74 -172t-190 -63zM219 741l-56 50q-7 5 0 11l132 114q7 5 14 0l61 -53q3 -1 3 -4t-3 -5l-137 -113
q-6 -4 -14 0zM423 733l-56 55q-3 2 -3 5t3 5l132 114q7 5 14 0l61 -57q8 -4 0 -10l-137 -112q-7 -3 -14 0z" />
    <glyph glyph-name="Ydieresis" unicode="&#x178;" horiz-adv-x="645" 
d="M492 700h140q7 0 9.5 -4t-1.5 -9l-255 -358v-321q0 -8 -10 -8h-114q-10 0 -10 8v321l-255 358q-4 5 -1.5 9t9.5 4h139q7 0 8 -3l167 -233l167 233q1 3 7 3zM292 817q0 -29 -22.5 -50.5t-52.5 -21.5q-29 0 -51 21.5t-22 50.5t22 50.5t51 21.5q30 0 52.5 -21.5t22.5 -50.5z
M496 817q0 -29 -22 -50.5t-52 -21.5t-52 21.5t-22 50.5t22 50.5t52 21.5t52 -21.5t22 -50.5z" />
    <glyph glyph-name="Zacute" unicode="&#x179;" horiz-adv-x="475" 
d="M443 122v-114q0 -8 -10 -8h-398q-6 0 -8.5 3t-0.5 8l224 559h-216q-10 0 -10 8v114q0 8 10 8h398q14 0 9 -11l-224 -559h216q10 0 10 -8zM163 739l-48 80q-6 8 4 10l186 102q9 4 14 -3l52 -82q4 -7 -4 -11l-190 -99q-9 -4 -14 3z" />
    <glyph glyph-name="zacute" unicode="&#x17a;" horiz-adv-x="583" 
d="M554 0h-550q-5 0 -8 4t0 8l341 559h-304q-9 0 -9 8v113q0 8 9 8h521q6 0 8.5 -3.5t0.5 -8.5l-341 -559h332q9 0 9 -8v-113q0 -8 -9 -8zM222 737l-48 80q-6 8 4 10l186 102q9 4 14 -3l52 -82q4 -7 -4 -11l-190 -99q-9 -4 -14 3z" />
    <glyph glyph-name="Zdotaccent" unicode="&#x17b;" horiz-adv-x="475" 
d="M443 122v-114q0 -8 -10 -8h-398q-6 0 -8.5 3t-0.5 8l224 559h-216q-10 0 -10 8v114q0 8 10 8h398q14 0 9 -11l-224 -559h216q10 0 10 -8zM318 811q0 -30 -23.5 -51t-57.5 -21q-32 0 -56 21.5t-24 50.5q0 30 24 51.5t56 21.5q34 0 57.5 -21.5t23.5 -51.5z" />
    <glyph glyph-name="zdotaccent" unicode="&#x17c;" horiz-adv-x="585" 
d="M390 821q0 -31 -26 -53.5t-63 -22.5q-35 0 -61.5 22.5t-26.5 53.5t26 53.5t62 22.5q37 0 63 -22t26 -54zM554 0h-550q-5 0 -8 4t0 8l341 559h-304q-9 0 -9 8v113q0 8 9 8h521q6 0 8.5 -3.5t0.5 -8.5l-341 -559h332q9 0 9 -8v-113q0 -8 -9 -8z" />
    <glyph glyph-name="Zcaron" unicode="&#x17d;" horiz-adv-x="475" 
d="M443 122v-114q0 -8 -10 -8h-398q-6 0 -8.5 3t-0.5 8l224 559h-216q-10 0 -10 8v114q0 8 10 8h398q14 0 9 -11l-224 -559h216q10 0 10 -8zM364 915l46 -66q6 -8 -3 -12l-162 -95h-10l-165 89q-9 4 -4 11l43 73q6 7 12 3l119 -66l112 66q6 3 12 -3z" />
    <glyph glyph-name="zcaron" unicode="&#x17e;" horiz-adv-x="583" 
d="M554 0h-550q-5 0 -8 4t0 8l341 559h-304q-9 0 -9 8v113q0 8 9 8h521q6 0 8.5 -3.5t0.5 -8.5l-341 -559h332q9 0 9 -8v-113q0 -8 -9 -8zM420 924l47 -68q6 -8 -3 -12l-166 -97h-10l-169 91q-9 4 -4 11l44 75q5 7 13 3l121 -67l114 67q7 3 13 -3z" />
    <glyph glyph-name="circumflex" unicode="&#x2c6;" horiz-adv-x="392" 
d="M69 550l-47 69q-6 8 3 12l166 96q1 1 5 1t5 -1l169 -91q9 -4 4 -10l-44 -76q-5 -5 -14 -3l-120 68l-115 -68q-7 -2 -12 3z" />
    <glyph glyph-name="caron" unicode="&#x2c7;" horiz-adv-x="395" 
d="M325 724l47 -68q6 -8 -3 -12l-166 -97h-10l-169 91q-9 4 -4 11l44 75q5 7 13 3l121 -67l114 67q7 3 13 -3z" />
    <glyph glyph-name="breve" unicode="&#x2d8;" horiz-adv-x="342" 
d="M233 710h89q9 0 9 -8q0 -80 -42.5 -117.5t-111.5 -37.5q-70 0 -117.5 38t-47.5 117q0 8 9 8h89q10 0 10 -8q1 -27 16 -42t35 -15t35.5 15t16.5 42q0 8 10 8z" />
    <glyph glyph-name="dotaccent" unicode="&#x2d9;" horiz-adv-x="273" 
d="M196 634q0 -29 -22.5 -49.5t-55.5 -20.5q-31 0 -54 21t-23 49q0 29 23 50t54 21q33 0 55.5 -21t22.5 -50z" />
    <glyph glyph-name="ring" unicode="&#x2da;" horiz-adv-x="341" 
d="M162 435q-58 0 -100 41.5t-42 98.5t42 98.5t100 41.5t100 -41.5t42 -98.5t-42 -98.5t-100 -41.5zM162 623q-18 0 -31.5 -14.5t-13.5 -33.5q0 -20 13.5 -33.5t31.5 -13.5q19 0 32 13.5t13 33.5t-13 34t-32 14z" />
    <glyph glyph-name="ogonek" unicode="&#x2db;" horiz-adv-x="301" 
d="M100 24h91q8 0 10 -5.5t-5 -8.5q-25 -13 -40.5 -41.5t-6.5 -51.5q11 -20 34 -20q29 0 62 23q12 6 16 -5l24 -76q2 -5 -4 -9q-49 -34 -119 -34q-100 0 -125 86q-5 17 -5 33q0 58 68 109z" />
    <glyph glyph-name="tilde" unicode="&#x2dc;" horiz-adv-x="392" 
d="M106 573l-79 22q-9 2 -7 9q7 52 36.5 78.5t73.5 26.5q42 0 83 -22h-3l2 -1h3q20 -10 35 -10q16 0 26 23q4 7 12 5l79 -25q10 -2 7 -9q-30 -101 -108 -101q-35 0 -85 21l-14 5q-20 9 -29 9q-12 0 -19 -25q-4 -8 -13 -6z" />
    <glyph glyph-name="hungarumlaut" unicode="&#x2dd;" horiz-adv-x="416" 
d="M60 557l-56 56q-8 6 0 12l131 126q7 5 14 0l60 -58q7 -5 0 -11l-136 -125q-6 -4 -13 0zM262 548l-56 61q-8 6 0 12l131 126q7 5 14 0l61 -63q7 -6 0 -11l-136 -125q-7 -4 -14 0z" />
    <glyph glyph-name="pi" unicode="&#x3c0;" horiz-adv-x="564" 
d="M41 694h473q10 0 10 -8v-112q0 -8 -10 -8h-75v-558q0 -8 -9 -8h-115q-9 0 -9 8v558h-57v-558q0 -8 -10 -8h-114q-9 0 -9 8v558h-75q-9 0 -9 8v112q0 8 9 8z" />
    <glyph glyph-name="uni0401" unicode="&#x401;" horiz-adv-x="588" 
d="M528 573h-323v-158h275q9 0 9 -8v-111q0 -8 -9 -8h-275v-158h332q10 0 10 -8v-114q0 -8 -10 -8h-456q-10 0 -10 8v684q0 8 10 8h447q10 0 10 -8v-111q0 -8 -10 -8zM290 813q0 -29 -22.5 -50.5t-52.5 -21.5q-29 0 -51 21.5t-22 50.5t22 50.5t51 21.5q30 0 52.5 -21.5
t22.5 -50.5zM494 813q0 -29 -22 -50.5t-52 -21.5t-52 21.5t-22 50.5t22 50.5t52 21.5t52 -21.5t22 -50.5z" />
    <glyph glyph-name="uni0410" unicode="&#x410;" horiz-adv-x="683" 
d="M570 583q34 -58 34 -119v-456q0 -8 -10 -8h-114q-10 0 -10 8v116h-265v-116q0 -8 -10 -8h-114q-10 0 -10 8v456q0 60 34 119q68 117 232 117q165 0 233 -117zM205 243h265v220q0 31 -16 57q-33 50 -117 50t-116 -53q-7 -12 -11 -25t-4 -20l-1 -8v-221z" />
    <glyph glyph-name="uni0411" unicode="&#x411;" horiz-adv-x="603" 
d="M309 424q124 0 185.5 -54.5t61.5 -154.5q0 -55 -21.5 -96.5t-51 -63t-67.5 -35t-63 -17t-44 -3.5h-228q-10 0 -10 8v684q0 8 10 8h424q10 0 10 -8v-110q0 -8 -10 -8h-301v-150h105zM309 129q27 0 49.5 5.5t43 26t20.5 54.5q0 83 -113 83h-105v-169h105z" />
    <glyph glyph-name="uni0412" unicode="&#x412;" horiz-adv-x="603" 
d="M546 500q0 -110 -97 -150q31 -11 53.5 -30t32.5 -38t15 -37t6 -29v-12q0 -55 -22 -95.5t-50.5 -60.5t-68 -32t-62 -14t-44.5 -2h-228q-10 0 -10 8v684q0 8 10 8h228h13.5t33 -3.5t47 -10.5t50 -21.5t47 -35t33 -54t13.5 -75.5zM204 575v-160h105q4 0 11 0.5t25 4.5
t31.5 11.5t24.5 23t11 37.5q0 37 -26 58t-52 23l-25 2h-105zM309 128q27 0 49.5 5t43 24t20.5 50q0 37 -28 56t-56 20l-29 1h-105v-156h105z" />
    <glyph glyph-name="uni0413" unicode="&#x413;" horiz-adv-x="548" 
d="M204 574v-566q0 -8 -10 -8h-113q-10 0 -10 8v684q0 8 10 8h424q10 0 10 -8v-110q0 -8 -10 -8h-301z" />
    <glyph glyph-name="uni0414" unicode="&#x414;" horiz-adv-x="714" 
d="M544 0h-407v-97q0 -8 -10 -8h-107q-9 0 -9 8v209q0 8 9 8h36q42 4 42 56v288q0 109 65.5 172.5t173.5 63.5h244q9 0 9 -8v-572h70q10 0 10 -8v-209q0 -8 -10 -8h-107q-9 0 -9 8v97zM232 176q0 -23 -15 -56h237v454h-113q-51 0 -80 -28.5t-29 -81.5v-288z" />
    <glyph glyph-name="uni0415" unicode="&#x415;" horiz-adv-x="595" 
d="M526 570h-322v-77h313q9 0 9 -8v-95q0 -8 -9 -8h-313v-60h313q9 0 9 -7v-98q0 -8 -9 -8h-313v-79h322q10 0 10 -8v-114q0 -8 -10 -8h-446q-10 0 -10 8v684q0 8 10 8h446q10 0 10 -8v-114q0 -8 -10 -8z" />
    <glyph glyph-name="uni0416" unicode="&#x416;" horiz-adv-x="870" 
d="M364 407v285q0 8 9 8h115q10 0 10 -8v-289l58 94l151 200q3 3 8 3h137q7 0 9.5 -4t-1.5 -9l-238 -316l243 -358q4 -5 1.5 -9t-9.5 -4h-141q-6 0 -8 4l-177 263l-33 -45v-214q0 -8 -10 -8h-115q-9 0 -9 8v215q-5 7 -16.5 20.5t-19.5 24.5l-175 -264q-2 -4 -7 -4h-142
q-7 0 -9.5 4t1.5 9l243 358l-238 316q-4 5 -1.5 9t9.5 4h138q4 0 7 -3l154 -203z" />
    <glyph glyph-name="uni0417" unicode="&#x417;" horiz-adv-x="493" 
d="M239 -10q-97 0 -157.5 56.5t-60.5 150.5q0 8 10 8h112q10 0 10 -8q1 -40 26.5 -60.5t61.5 -20.5q33 0 57 27t24 65q0 42 -24.5 65.5t-61.5 23.5h-51q-10 0 -10 8v102q0 8 10 8h51q30 0 50 22.5t20 62.5q0 38 -21.5 61t-55.5 23q-35 0 -58 -20.5t-23 -52.5q0 -8 -9 -8
h-105q-10 0 -10 8q0 87 57 143t148 56q94 0 152.5 -56.5t58.5 -154.5q0 -42 -19 -79.5t-54 -59.5q40 -24 65.5 -65t25.5 -87q0 -109 -63 -163.5t-156 -54.5z" />
    <glyph glyph-name="uni0418" unicode="&#x418;" horiz-adv-x="742" 
d="M74 8v684q0 8 9 8h116q10 0 10 -8v-466l323 471q2 3 8 3h117q10 0 10 -8v-684q0 -8 -10 -8h-116q-10 0 -10 8v475l-322 -479q-2 -4 -8 -4h-118q-9 0 -9 8z" />
    <glyph glyph-name="uni0419" unicode="&#x419;" horiz-adv-x="744" 
d="M74 8v684q0 8 9 8h116q10 0 10 -8v-466l323 471q2 3 8 3h117q10 0 10 -8v-684q0 -8 -10 -8h-116q-10 0 -10 8v475l-322 -479q-2 -4 -8 -4h-118q-9 0 -9 8zM440 893h89q9 0 9 -8q0 -80 -42.5 -117.5t-111.5 -37.5q-70 0 -117.5 38t-47.5 117q0 8 9 8h89q10 0 10 -8
q1 -27 16 -42t35 -15t35.5 15t16.5 42q0 8 10 8z" />
    <glyph glyph-name="uni041A" unicode="&#x41a;" horiz-adv-x="646" 
d="M627 687l-279 -343l281 -331q4 -5 1.5 -9t-9.5 -4h-150q-5 0 -8 3l-204 252q-3 -3 -23 -26.5t-31 -34.5v-186q0 -8 -9 -8h-115q-10 0 -10 8v684q0 8 10 8h115q9 0 9 -8v-318l263 323q3 3 8 3h143q7 0 9.5 -4t-1.5 -9z" />
    <glyph glyph-name="uni041B" unicode="&#x41b;" horiz-adv-x="656" 
d="M10 3v113q0 10 11 8q70 -10 70 54v286q0 110 62 173t170 63h243q10 0 10 -8v-684q0 -8 -10 -8h-117q-10 0 -10 8v566h-112q-102 0 -102 -110v-286q0 -199 -206 -183q-9 0 -9 8z" />
    <glyph glyph-name="uni041C" unicode="&#x41c;" horiz-adv-x="1022" 
d="M596 701h124q7 0 9 -5l286 -685q5 -11 -9 -11h-123q-7 0 -9 5l-215 516l-81 -194l131 -316q5 -11 -9 -11h-123q-7 0 -9 5l-63 148l-61 -148q-2 -5 -9 -5h-124q-6 0 -8.5 3t-0.5 8l132 316l-81 194l-215 -516q-2 -5 -9 -5h-123q-14 0 -9 11l285 685q2 5 9 5h123q7 0 9 -5
l82 -198l82 198q3 5 9 5z" />
    <glyph glyph-name="uni041D" unicode="&#x41d;" horiz-adv-x="681" 
d="M480 700h114q10 0 10 -8v-684q0 -8 -10 -8h-114q-10 0 -10 8v163h-265v-163q0 -8 -10 -8h-114q-10 0 -10 8v684q0 8 10 8h114q10 0 10 -8v-163h265v163q0 8 10 8zM205 301h265v98h-265v-98z" />
    <glyph glyph-name="uni041E" unicode="&#x41e;" horiz-adv-x="638" 
d="M313 186q-109 0 -186.5 77t-77.5 185q0 107 77.5 184.5t186.5 77.5t186.5 -77.5t77.5 -184.5q0 -108 -77.5 -185t-186.5 -77zM313 581q-54 0 -92.5 -39t-38.5 -94q0 -56 38.5 -94.5t92.5 -38.5q55 0 93 38.5t38 94.5t-38 94.5t-93 38.5zM546 121v-113q0 -8 -10 -8h-451
q-10 0 -10 8v113q0 8 10 8h451q10 0 10 -8z" />
    <glyph glyph-name="uni041F" unicode="&#x41f;" horiz-adv-x="686" 
d="M83 700h513q10 0 10 -8v-684q0 -8 -10 -8h-114q-10 0 -10 8v564h-265v-564q0 -8 -10 -8h-114q-10 0 -10 8v684q0 8 10 8z" />
    <glyph glyph-name="uni0420" unicode="&#x420;" horiz-adv-x="583" 
d="M309 700q10 0 26 -1t56.5 -12.5t72 -31t57 -62t25.5 -100.5q0 -42 -13 -76.5t-34 -55.5t-46.5 -37t-50.5 -23t-46 -11t-34 -4l-13 -1h-104v-277q0 -8 -10 -8h-114q-10 0 -10 8v399q0 8 10 8h93l-103 162v115q0 8 10 8h228zM309 570h-88l97 -154q34 0 64.5 19.5t30.5 57.5
q0 77 -104 77z" />
    <glyph glyph-name="uni0421" unicode="&#x421;" horiz-adv-x="687" 
d="M398 130q91 0 154 65q7 3 14 0l80 -82q7 -5 0 -11q-100 -102 -248 -102q-146 0 -249 102.5t-103 247.5t103 247.5t249 102.5q148 0 248 -103q7 -5 0 -11l-80 -81q-7 -3 -14 0q-63 65 -154 65q-90 0 -154 -64.5t-64 -155.5t64 -155.5t154 -64.5zM493 350q0 41 -28 69.5
t-68 28.5t-68 -28.5t-28 -69.5t28 -69.5t68 -28.5t68 28.5t28 69.5z" />
    <glyph glyph-name="uni0422" unicode="&#x422;" horiz-adv-x="448" 
d="M430 686v-104q0 -7 -10 -7h-133v-567q0 -8 -9 -8h-113q-9 0 -9 8v567h-133q-10 0 -10 7v104q0 8 10 8h397q10 0 10 -8z" />
    <glyph glyph-name="uni0423" unicode="&#x423;" horiz-adv-x="508" 
d="M9 700h131q7 0 9 -5l105 -300l113 300q2 5 8 5h122q13 0 8 -11l-266 -684q-2 -5 -8 -5h-118q-13 0 -8 11l79 210l-184 468q-2 5 0.5 8t8.5 3z" />
    <glyph glyph-name="uni0424" unicode="&#x424;" horiz-adv-x="746" 
d="M424 -10h-115q-10 0 -10 8v81q-129 3 -199.5 81t-70.5 185q0 108 71.5 188.5t198.5 83.5v75q0 8 10 8h115q9 0 9 -8v-75q130 -3 202.5 -83t72.5 -188q0 -107 -72 -185.5t-203 -81.5v-81q0 -8 -9 -8zM433 498v-301q65 3 102 49t37 106q0 58 -36 100.5t-103 45.5zM299 197
v301q-68 -3 -104 -45t-36 -100q0 -60 37.5 -106.5t102.5 -49.5z" />
    <glyph glyph-name="uni0425" unicode="&#x425;" horiz-adv-x="674" 
d="M13 13l240 337l-240 337q-4 5 -1.5 9t8.5 4h140q6 0 8 -3l167 -233l166 233q1 3 8 3h140q7 0 9.5 -4t-1.5 -9l-241 -337l241 -337q4 -5 1.5 -9t-9.5 -4h-140q-7 0 -8 3l-166 233l-167 -233q-2 -3 -8 -3h-140q-6 0 -8.5 4t1.5 9z" />
    <glyph glyph-name="uni0426" unicode="&#x426;" horiz-adv-x="700" 
d="M547 0h-465q-9 0 -9 8v684q0 8 9 8h115q10 0 10 -8v-564h265v564q0 8 9 8h115q9 0 9 -8v-572h58q10 0 10 -8v-211q0 -8 -10 -8h-106q-10 0 -10 8v99z" />
    <glyph glyph-name="uni0427" unicode="&#x427;" horiz-adv-x="634" 
d="M546 0h-114q-10 0 -10 8v254q-58 -32 -131 -32q-107 0 -176.5 65.5t-69.5 170.5v226q0 8 10 8h115q9 0 9 -8v-225q6 -51 42.5 -80t85.5 -29q66 0 115 41v293q0 8 10 8h114q10 0 10 -8v-684q0 -8 -10 -8z" />
    <glyph glyph-name="uni0428" unicode="&#x428;" horiz-adv-x="1010" 
d="M916 0h-832q-10 0 -10 8v684q0 8 10 8h114q10 0 10 -8v-564h226v564q0 8 10 8h112q10 0 10 -8v-564h226v564q0 8 9 8h115q10 0 10 -8v-684q0 -8 -10 -8z" />
    <glyph glyph-name="uni0429" unicode="&#x429;" horiz-adv-x="1026" 
d="M867 0h-783q-10 0 -10 8v684q0 8 10 8h115q9 0 9 -8v-564h226v564q0 8 10 8h112q10 0 10 -8v-564h226v564q0 8 10 8h114q10 0 10 -8v-572h58q9 0 9 -8v-211q0 -8 -9 -8h-107q-10 0 -10 8v99z" />
    <glyph glyph-name="uni042A" unicode="&#x42a;" horiz-adv-x="624" 
d="M358 288h-104v-158h104q12 0 23.5 1.5t33.5 8t35 24t13 44.5q0 80 -105 80zM358 0h-228q-10 0 -10 8v574h-110q-10 0 -10 8v102q0 8 10 8h234q10 0 10 -8v-276h104q11 0 21.5 -0.5t36.5 -4.5t47.5 -11t48 -22.5t44.5 -37t30.5 -55.5t12.5 -77t-13 -77t-32 -55t-46 -37
t-49 -23t-47.5 -11t-35.5 -4.5t-18 -0.5z" />
    <glyph glyph-name="uni042B" unicode="&#x42b;" horiz-adv-x="848" 
d="M311 0h-229q-10 0 -10 8v684q0 8 10 8h114q10 0 10 -8v-276h105q11 0 21 -0.5t36 -4.5t47.5 -11t48 -23t44.5 -37t30.5 -55t12.5 -77t-13 -77t-32 -55t-46 -37t-49 -23t-47.5 -11t-35 -4.5t-17.5 -0.5zM311 288h-105v-158h105q12 0 23.5 1.5t33 8t34.5 24t13 44.5
q0 80 -104 80zM766 692v-684q0 -8 -9 -8h-115q-10 0 -10 8v684q0 8 10 8h115q9 0 9 -8z" />
    <glyph glyph-name="uni042C" unicode="&#x42c;" horiz-adv-x="580" 
d="M310 0h-229q-10 0 -10 8v684q0 8 10 8h114q10 0 10 -8v-276h105q11 0 21 -0.5t36 -4.5t47.5 -11t48 -23t44.5 -37t30.5 -55t12.5 -77t-13 -77t-32 -55t-46 -37t-49 -23t-47.5 -11t-35 -4.5t-17.5 -0.5zM310 288h-105v-158h105q12 0 23.5 1.5t33 8t34.5 24t13 44.5
q0 80 -104 80z" />
    <glyph glyph-name="uni042D" unicode="&#x42d;" horiz-adv-x="694" 
d="M297 121q74 0 131.5 47.5t76.5 119.5h-273q-10 0 -10 8v112q0 8 10 8h276q-19 76 -77 120t-134 44q-89 0 -154 -65q-7 -5 -14 0l-80 80q-8 6 0 12q100 103 248 103q149 0 250.5 -100t101.5 -260q0 -153 -102.5 -256t-249.5 -103q-148 0 -248 102q-8 6 0 12l80 81
q7 5 14 0q65 -65 154 -65z" />
    <glyph glyph-name="uni042E" unicode="&#x42e;" horiz-adv-x="1006" 
d="M622 709q81 0 147 -30.5t106.5 -82t62 -114.5t21.5 -132t-21.5 -132t-62 -114t-106.5 -81.5t-147 -30.5q-71 0 -129.5 24t-97.5 65.5t-63.5 93t-34.5 110.5h-88v-277q0 -8 -10 -8h-114q-10 0 -10 8v684q0 8 10 8h114q10 0 10 -8v-276h88q21 126 103.5 209.5t221.5 83.5z
M622 118q95 0 148 69t53 163t-53 163t-148 69q-94 0 -146.5 -69t-52.5 -163t53 -163t146 -69z" />
    <glyph glyph-name="uni042F" unicode="&#x42f;" horiz-adv-x="618" 
d="M171 0h-134q-5 0 -8 4t1 8l180 288q-147 45 -147 193q0 58 24.5 100.5t59.5 62t70 31t59 12.5l25 1h228q10 0 10 -8v-115l-103 -162h93q10 0 10 -8v-399q0 -8 -10 -8h-114q-10 0 -10 8v277h-49l-176 -281q-2 -4 -9 -4zM282 416l97 154h-78q-4 0 -11 -0.5t-25 -4.5
t-32 -11.5t-25 -23t-11 -37.5q0 -38 26.5 -55.5t58.5 -21.5z" />
    <glyph glyph-name="uni0430" unicode="&#x430;" 
d="M418 5l-29 74h-227l-27 -74q-2 -5 -9 -5h-123q-6 0 -8.5 3t-0.5 8l273 704q2 5 9 5t9 -5l273 -704q2 -4 -0.5 -7.5t-7.5 -3.5h-124q-6 0 -8 5zM276 407l-71 -210h141z" />
    <glyph glyph-name="uni0431" unicode="&#x431;" horiz-adv-x="603" 
d="M307 421q123 0 184 -54.5t61 -153.5q0 -55 -21.5 -96t-50.5 -62.5t-66.5 -34.5t-62 -16.5t-44.5 -3.5h-226q-9 0 -9 8v684q0 8 9 8h421q10 0 10 -8v-109q0 -8 -10 -8h-298v-154h103zM307 128q44 0 78.5 18.5t34.5 66.5q0 83 -113 83h-103v-168h103z" />
    <glyph glyph-name="uni0432" unicode="&#x432;" horiz-adv-x="603" 
d="M546 500q0 -110 -97 -150q31 -11 53.5 -30t32.5 -38t15 -37t6 -29v-12q0 -55 -22 -95.5t-50.5 -60.5t-68 -32t-62 -14t-44.5 -2h-228q-10 0 -10 8v684q0 8 10 8h228h13.5t33 -3.5t47 -10.5t50 -21.5t47 -35t33 -54t13.5 -75.5zM204 575v-160h105q4 0 11 0.5t25 4.5
t31.5 11.5t24.5 23t11 37.5q0 37 -26 58t-52 23l-25 2h-105zM309 128q27 0 49.5 5t43 24t20.5 50q0 37 -28 56t-56 20l-29 1h-105v-156h105z" />
    <glyph glyph-name="uni0433" unicode="&#x433;" horiz-adv-x="548" 
d="M203 575v-567q0 -8 -9 -8h-113q-10 0 -10 8v684q0 8 10 8h421q9 0 9 -8v-109q0 -8 -9 -8h-299z" />
    <glyph glyph-name="uni0434" unicode="&#x434;" horiz-adv-x="617" 
d="M488 0h-366v-96q0 -8 -10 -8h-104q-10 0 -10 8v205q0 8 10 8h58l229 594q2 5 9 5t9 -5l230 -594h59q9 0 9 -8v-205q0 -8 -9 -8h-104q-10 0 -10 8v96zM304 392l-99 -275h199z" />
    <glyph glyph-name="uni0435" unicode="&#x435;" horiz-adv-x="588" 
d="M534 573h-330v-162h273q9 0 9 -8v-109q0 -8 -9 -8h-273v-160h330q10 0 10 -8v-110q0 -8 -10 -8h-453q-9 0 -9 8v684q0 8 9 8h453q10 0 10 -8v-111q0 -8 -10 -8z" />
    <glyph glyph-name="uni0436" unicode="&#x436;" horiz-adv-x="875" 
d="M362 403v289q0 8 10 8h113q10 0 10 -8v-293l28 48.5l30 50.5l149 199q3 3 8 3h137q7 0 9 -4t-1 -9l-237 -320l241 -354q4 -5 1.5 -9t-8.5 -4h-141q-6 0 -8 4l-175 261q-3 -4 -14 -20t-19 -25v-212q0 -8 -10 -8h-113q-10 0 -10 8v213l-17.5 22.5l-17.5 22.5l-173 -262
q-2 -4 -8 -4h-140q-7 0 -9.5 4t1.5 9l241 354l-236 320q-4 5 -1.5 9t9.5 4h136q5 0 8 -3l152 -202z" />
    <glyph glyph-name="uni0437" unicode="&#x437;" horiz-adv-x="500" 
d="M242 -10q-98 0 -159 56.5t-61 150.5q0 7 10 7h113q10 0 10 -7q1 -40 27 -60.5t62 -20.5q34 0 58.5 27t24.5 65q0 42 -25 65.5t-63 23.5h-52q-10 0 -10 7v102q0 8 10 8h52q30 0 50 22.5t20 62.5q0 38 -21 60.5t-56 22.5q-36 0 -59 -20t-23 -51q0 -8 -10 -8h-105
q-10 0 -10 8q0 86 57.5 141.5t149.5 55.5q95 0 154 -56.5t59 -153.5q0 -42 -19 -79t-55 -59q40 -24 66 -65.5t26 -86.5q0 -109 -63.5 -163.5t-157.5 -54.5z" />
    <glyph glyph-name="uni0438" unicode="&#x438;" horiz-adv-x="744" 
d="M75 8v684q0 8 9 8h115q9 0 9 -8v-468l321 473q1 3 8 3h116q10 0 10 -8v-684q0 -8 -10 -8h-115q-10 0 -10 8v477l-320 -481q-2 -4 -7 -4h-117q-9 0 -9 8z" />
    <glyph glyph-name="uni0439" unicode="&#x439;" horiz-adv-x="747" 
d="M75 8v684q0 8 9 8h115q9 0 9 -8v-468l321 473q1 3 8 3h116q10 0 10 -8v-684q0 -8 -10 -8h-115q-10 0 -10 8v477l-320 -481q-2 -4 -7 -4h-117q-9 0 -9 8zM439 891h89q9 0 9 -8q0 -80 -42.5 -117.5t-111.5 -37.5q-70 0 -117.5 38t-47.5 117q0 8 9 8h89q10 0 10 -8
q1 -27 16 -42t35 -15t35.5 15t16.5 42q0 8 10 8z" />
    <glyph glyph-name="uni043A" unicode="&#x43a;" horiz-adv-x="646" 
d="M626 687l-278 -343l280 -331q4 -5 1.5 -9t-9.5 -4h-149q-5 0 -8 3l-204 252q-5 -5 -23.5 -27.5t-29.5 -33.5v-186q0 -8 -10 -8h-114q-10 0 -10 8v684q0 8 10 8h114q10 0 10 -8v-324l262 329q3 3 8 3h142q7 0 9.5 -4t-1.5 -9z" />
    <glyph glyph-name="uni043B" unicode="&#x43b;" 
d="M415 5l-140 388l-140 -388q-2 -5 -9 -5h-122q-5 0 -7.5 3.5t-0.5 7.5l270 699q2 5 8.5 5t8.5 -5l272 -699q5 -11 -9 -11h-122q-7 0 -9 5z" />
    <glyph glyph-name="uni043C" unicode="&#x43c;" horiz-adv-x="916" 
d="M828 692v-684q0 -8 -10 -8h-113q-10 0 -10 8v394l-176 -370q-3 -5 -9 -5h-107q-5 0 -8 5l-189 378v-402q0 -8 -10 -8h-113q-10 0 -10 8v684q0 8 10 8h115q6 0 9 -5l249 -515l238 515q2 5 9 5h115q10 0 10 -8z" />
    <glyph glyph-name="uni043D" unicode="&#x43d;" horiz-adv-x="686" 
d="M482 700h114q10 0 10 -8v-684q0 -8 -10 -8h-114q-10 0 -10 8v277h-265v-277q0 -8 -10 -8h-114q-10 0 -10 8v684q0 8 10 8h114q10 0 10 -8v-276h265v276q0 8 10 8z" />
    <glyph glyph-name="uni043E" unicode="&#x43e;" horiz-adv-x="797" 
d="M393 710q83 0 150 -30.5t109 -82t64 -115t22 -131.5t-22 -131.5t-64 -115t-109 -82.5t-150 -31q-111 0 -192 53.5t-118 133.5t-37 173q0 69 22 132t63.5 114.5t109.5 82t152 30.5zM393 117q99 0 154.5 69t55.5 163q0 95 -55.5 164.5t-154.5 69.5q-100 0 -155.5 -69.5
t-55.5 -164.5q0 -94 55.5 -163t155.5 -69z" />
    <glyph glyph-name="uni043F" unicode="&#x43f;" horiz-adv-x="686" 
d="M84 700h509q9 0 9 -8v-684q0 -8 -9 -8h-114q-10 0 -10 8v564h-262v-564q0 -8 -10 -8h-113q-10 0 -10 8v684q0 8 10 8z" />
    <glyph glyph-name="uni0440" unicode="&#x440;" horiz-adv-x="580" 
d="M308 700q17 0 36.5 -1.5t58.5 -13.5t67.5 -32t51.5 -63t23 -101q0 -42 -12.5 -76t-31 -55.5t-44.5 -37t-48 -22.5t-47 -11.5t-35.5 -5t-18.5 -0.5h-104v-275q0 -8 -9 -8h-114q-9 0 -9 8v686q0 8 9 8h227zM308 410q12 0 24.5 2t33 8.5t33.5 24t13 44.5q0 22 -9.5 38.5
t-22 24.5t-29 12.5t-26 5.5t-17.5 1h-104v-161h104z" />
    <glyph glyph-name="uni0441" unicode="&#x441;" horiz-adv-x="694" 
d="M399 119q89 0 153 64q7 5 14 0l79 -80q8 -6 0 -12q-101 -101 -246 -101q-148 0 -249 98.5t-101 258.5q0 157 98.5 260t251.5 103q147 0 246 -101q8 -6 0 -12l-79 -79q-7 -5 -14 0q-66 64 -153 64q-98 0 -156.5 -66.5t-58.5 -168.5q0 -103 61.5 -165.5t153.5 -62.5z" />
    <glyph glyph-name="uni0442" unicode="&#x442;" horiz-adv-x="448" 
d="M430 686v-104q0 -7 -10 -7h-133v-567q0 -8 -9 -8h-113q-9 0 -9 8v567h-133q-10 0 -10 7v104q0 8 10 8h397q10 0 10 -8z" />
    <glyph glyph-name="uni0443" unicode="&#x443;" horiz-adv-x="511" 
d="M10 700h130q6 0 8 -5l105 -304l111 304q2 5 9 5h120q6 0 8.5 -3t0.5 -8l-264 -684q-2 -5 -8 -5h-117q-5 0 -7.5 3.5t-0.5 7.5l78 208l-182 470q-5 11 9 11z" />
    <glyph glyph-name="uni0444" unicode="&#x444;" horiz-adv-x="746" 
d="M421 -10h-113q-10 0 -10 8v80q-128 3 -198 80.5t-70 183.5q0 69 29 129.5t91.5 102.5t147.5 43v75q0 8 10 8h113q10 0 10 -8v-75q86 -1 150 -43t93 -102t29 -129q0 -106 -71 -184t-201 -81v-80q0 -8 -10 -8zM431 499v-304q64 4 101 49t37 105q0 58 -36 102.5t-102 47.5z
M298 195v304q-67 -3 -103 -46.5t-36 -102.5q0 -60 37 -105.5t102 -49.5z" />
    <glyph glyph-name="uni0445" unicode="&#x445;" horiz-adv-x="674" 
d="M14 13l238 334l-238 340q-4 5 -1.5 9t9.5 4h138q6 0 8 -3l166 -237l164 237q2 3 8 3h139q6 0 8.5 -4t-0.5 -9l-239 -340l239 -334q3 -5 0.5 -9t-8.5 -4h-139q-6 0 -8 3l-164 231l-166 -231q-2 -3 -8 -3h-138q-7 0 -9.5 4t1.5 9z" />
    <glyph glyph-name="uni0446" unicode="&#x446;" horiz-adv-x="700" 
d="M544 0h-461q-9 0 -9 8v684q0 8 9 8h114q9 0 9 -8v-565h263v565q0 8 10 8h113q10 0 10 -8v-573h57q10 0 10 -8v-209q0 -8 -10 -8h-106q-9 0 -9 8v98z" />
    <glyph glyph-name="uni0447" unicode="&#x447;" horiz-adv-x="634" 
d="M543 0h-114q-10 0 -10 8v252q-56 -32 -129 -32q-106 0 -175 64.5t-69 169.5v230q0 8 10 8h113q10 0 10 -8v-229q6 -51 42 -79.5t85 -28.5q63 0 113 40v297q0 8 10 8h114q9 0 9 -8v-684q0 -8 -9 -8z" />
    <glyph glyph-name="uni0448" unicode="&#x448;" horiz-adv-x="1011" 
d="M910 0h-825q-9 0 -9 8v684q0 8 9 8h114q9 0 9 -8v-565h224v565q0 8 10 8h111q10 0 10 -8v-565h224v565q0 8 10 8h113q10 0 10 -8v-684q0 -8 -10 -8z" />
    <glyph glyph-name="uni0449" unicode="&#x449;" horiz-adv-x="1026" 
d="M862 0h-776q-10 0 -10 8v684q0 8 10 8h113q10 0 10 -8v-565h224v565q0 8 9 8h112q10 0 10 -8v-565h223v565q0 8 10 8h114q9 0 9 -8v-573h57q10 0 10 -8v-209q0 -8 -10 -8h-105q-10 0 -10 8v98z" />
    <glyph glyph-name="uni044A" unicode="&#x44a;" horiz-adv-x="624" 
d="M356 286h-103v-157h103q9 0 17 0.5t25.5 4.5t29.5 11.5t22 23t10 37.5q0 80 -104 80zM356 0h-226q-10 0 -10 8v575h-109q-9 0 -9 7v102q0 8 9 8h232q10 0 10 -8v-279h103q11 0 21.5 -0.5t36 -4.5t47 -11t47.5 -22.5t44 -36.5t30.5 -55.5t12.5 -76.5q0 -58 -24.5 -100
t-54.5 -61.5t-71 -30.5t-58 -12.5t-31 -1.5z" />
    <glyph glyph-name="uni044B" unicode="&#x44b;" horiz-adv-x="848" 
d="M310 0h-227q-10 0 -10 8v684q0 8 10 8h113q10 0 10 -8v-279h104q10 0 20.5 -0.5t36 -4.5t47 -11t47.5 -22.5t44 -36.5t30.5 -55.5t12.5 -76.5q0 -58 -24.5 -100t-54.5 -61.5t-70.5 -30.5t-57.5 -12.5t-31 -1.5zM310 286h-104v-157h104q9 0 17 0.5t25.5 4.5t29.5 11.5
t22 23t10 37.5q0 80 -104 80zM761 692v-684q0 -8 -9 -8h-114q-9 0 -9 8v684q0 8 9 8h114q9 0 9 -8z" />
    <glyph glyph-name="uni044C" unicode="&#x44c;" horiz-adv-x="580" 
d="M308 0h-227q-9 0 -9 8v684q0 8 9 8h114q9 0 9 -8v-279h104q17 0 35 -1.5t58 -12.5t69.5 -30.5t53 -62t23.5 -100.5t-24.5 -100t-54.5 -61.5t-71 -30.5t-58 -12.5t-31 -1.5zM308 286h-104v-157h104q9 0 17 0.5t25.5 4.5t29.5 11.5t22 23t10 37.5q0 80 -104 80z" />
    <glyph glyph-name="uni044D" unicode="&#x44d;" horiz-adv-x="694" 
d="M296 120q73 0 130 47t77 119h-272q-9 0 -9 8v110q0 8 9 8h274q-19 77 -76.5 122.5t-132.5 45.5q-87 0 -153 -64q-7 -5 -14 0l-79 79q-8 6 0 12q99 101 246 101t248 -101t101 -260q0 -152 -101.5 -254t-247.5 -102q-145 0 -246 101q-8 6 0 12l79 80q7 5 14 0
q64 -64 153 -64z" />
    <glyph glyph-name="uni044E" unicode="&#x44e;" horiz-adv-x="993" 
d="M611 710q80 0 145.5 -31.5t105.5 -84t61.5 -116t21.5 -131.5q0 -92 -36 -171t-114 -131.5t-184 -52.5q-137 0 -218 83t-102 208h-82v-275q0 -8 -10 -8h-113q-10 0 -10 8v685q0 8 10 8h113q10 0 10 -8v-280h82q10 59 34 111t62 94.5t96 67t128 24.5zM611 117
q94 0 146.5 68t52.5 162q0 59 -21 112t-68 89t-110 36q-92 0 -143.5 -71t-51.5 -166q0 -93 51 -161.5t144 -68.5z" />
    <glyph glyph-name="uni044F" unicode="&#x44f;" horiz-adv-x="593" 
d="M304 283l-128 -278q-2 -5 -9 -5h-125q-14 0 -9 11l136 293q-129 53 -129 184q0 58 21 100.5t48 63.5t65 32.5t59 13.5t44 2h225q10 0 10 -8v-684q0 -8 -10 -8h-113q-10 0 -10 8v275h-75zM379 397v177h-102q-19 0 -39 -4.5t-42.5 -25.5t-22.5 -56q0 -27 11 -46.5
t28.5 -28.5t33 -12.5t31.5 -3.5h102z" />
    <glyph glyph-name="uni0451" unicode="&#x451;" horiz-adv-x="588" 
d="M534 573h-330v-162h273q9 0 9 -8v-109q0 -8 -9 -8h-273v-160h330q10 0 10 -8v-110q0 -8 -10 -8h-453q-9 0 -9 8v684q0 8 9 8h453q10 0 10 -8v-111q0 -8 -10 -8zM288 812q0 -28 -22.5 -48t-52.5 -20q-29 0 -51 20t-22 48t22 48t51 20q30 0 52.5 -20t22.5 -48zM492 812
q0 -28 -22 -48t-52 -20t-52 20t-22 48t22 48t52 20t52 -20t22 -48z" />
    <glyph glyph-name="endash" unicode="&#x2013;" horiz-adv-x="509" 
d="M464 395v-109q0 -7 -10 -7h-413q-10 0 -10 7v109q0 8 10 8h413q10 0 10 -8z" />
    <glyph glyph-name="emdash" unicode="&#x2014;" horiz-adv-x="579" 
d="M523 395v-109q0 -7 -10 -7h-472q-10 0 -10 7v109q0 8 10 8h472q10 0 10 -8z" />
    <glyph glyph-name="quotesinglbase" unicode="&#x201a;" horiz-adv-x="201" 
d="M90 129q40 0 59.5 -21.5t19.5 -55.5q0 -39 -22 -81.5t-52 -61.5q-5 -3 -10 -0.5t-5 7.5v76q-25 3 -42.5 23t-17.5 46q0 28 20.5 48t49.5 20z" />
    <glyph glyph-name="quotedblbase" unicode="&#x201e;" horiz-adv-x="393" 
d="M90 129q40 0 59.5 -21.5t19.5 -55.5q0 -39 -22 -81.5t-52 -61.5q-5 -3 -10 -0.5t-5 7.5v76q-25 3 -42.5 23t-17.5 46q0 28 20.5 48t49.5 20zM273 129q40 0 59.5 -21.5t19.5 -55.5q0 -39 -22 -81.5t-52 -61.5q-5 -3 -10 -0.5t-5 7.5v76q-25 3 -42.5 23t-17.5 46
q0 28 20.5 48t49.5 20z" />
    <glyph glyph-name="dagger" unicode="&#x2020;" horiz-adv-x="543" 
d="M335 529h162q10 0 10 -8v-114q0 -8 -10 -8h-162v-391q0 -8 -9 -8h-115q-10 0 -10 8v391h-161q-10 0 -10 8v114q0 8 10 8h161v163q0 8 10 8h115q9 0 9 -8v-163z" />
    <glyph glyph-name="daggerdbl" unicode="&#x2021;" horiz-adv-x="537" 
d="M333 529h162q10 0 10 -8v-114q0 -8 -10 -8h-162v-85h162q10 0 10 -8v-114q0 -8 -10 -8h-162v-176q0 -8 -9 -8h-115q-9 0 -9 8v176h-162q-10 0 -10 8v114q0 8 10 8h162v85h-162q-10 0 -10 8v114q0 8 10 8h162v163q0 8 9 8h115q9 0 9 -8v-163z" />
    <glyph glyph-name="bullet" unicode="&#x2022;" horiz-adv-x="312" 
d="M262 350q0 -47 -33.5 -80t-82.5 -33q-47 0 -81 33.5t-34 79.5q0 47 34 80t81 33q49 0 82.5 -33t33.5 -80z" />
    <glyph glyph-name="ellipsis" unicode="&#x2026;" horiz-adv-x="556" 
d="M89 133q30 0 51 -20.5t21 -49.5t-20.5 -49t-51.5 -20q-29 0 -49.5 20.5t-20.5 48.5q0 29 20.5 49.5t49.5 20.5zM265 133q30 0 51 -20.5t21 -49.5t-20.5 -49t-51.5 -20q-29 0 -49.5 20.5t-20.5 48.5q0 29 20.5 49.5t49.5 20.5zM441 133q30 0 51 -20.5t21 -49.5t-20.5 -49
t-51.5 -20q-29 0 -49.5 20.5t-20.5 48.5q0 29 20.5 49.5t49.5 20.5z" />
    <glyph glyph-name="perthousand" unicode="&#x2030;" horiz-adv-x="1008" 
d="M167 403q-62 0 -106.5 43.5t-44.5 104.5t44.5 105t106.5 44t106 -44t44 -105t-44 -104.5t-106 -43.5zM167 604q-21 0 -35.5 -15.5t-14.5 -37.5t14.5 -36.5t35.5 -14.5t35.5 15t14.5 36q0 22 -15 37.5t-35 15.5zM481 2q-64 0 -108 44t-44 106t44 106t108 44t108 -44
t44 -106t-44 -106t-108 -44zM481 205q-22 0 -36.5 -15t-14.5 -38t14.5 -38t36.5 -15q21 0 36 15.5t15 37.5t-15 37.5t-36 15.5zM114 2h-109q-6 0 -8.5 4t1.5 9l530 682q3 3 8 3h109q7 0 9 -4t-1 -9l-531 -682q-3 -3 -8 -3zM819 2q-63 0 -107.5 44t-44.5 106t44.5 106
t107.5 44q64 0 108.5 -44t44.5 -106t-44.5 -106t-108.5 -44zM819 205q-21 0 -36 -15.5t-15 -37.5t15 -37.5t36 -15.5t36.5 15.5t15.5 37.5t-15.5 37.5t-36.5 15.5z" />
    <glyph glyph-name="guilsinglleft" unicode="&#x2039;" horiz-adv-x="314" 
d="M205 554l73 -58q7 -6 2 -11l-118 -164l122 -148q5 -5 -2 -11l-74 -61q-6 -5 -14 1l-182 214q-5 5 0 10l179 227q7 7 14 1z" />
    <glyph glyph-name="guilsinglright" unicode="&#x203a;" horiz-adv-x="314" 
d="M24 496l74 58q6 6 13 -1l179 -227q5 -5 0 -10l-182 -214q-7 -5 -13 -1l-75 61q-7 6 -2 11l123 148l-119 164q-5 5 2 11z" />
    <glyph glyph-name="Euro" unicode="&#x20ac;" horiz-adv-x="593" 
d="M-1 372v85q0 7 10 7h62q33 105 116 170.5t213 65.5q80 0 157 -41q8 -4 3 -11l-52 -101q-5 -5 -14 -2q-52 25 -94 25q-129 0 -185 -106h154q10 0 10 -7v-85q0 -7 -10 -7h-181q-2 -23 1 -40h180q10 0 10 -8v-84q0 -8 -10 -8h-147q59 -95 178 -95q55 0 106 23q9 3 12 -3
l39 -109q2 -7 -5 -10q-68 -31 -152 -31q-128 0 -209.5 61.5t-116.5 163.5h-65q-10 0 -10 8v84q0 8 10 8h45q-1 13 -1 40h-44q-10 0 -10 7z" />
    <glyph glyph-name="trademark" unicode="&#x2122;" horiz-adv-x="646" 
d="M229 692v-44q0 -8 -10 -8h-57v-238q0 -8 -10 -8h-49q-10 0 -10 8v238h-58q-9 0 -9 8v44q0 8 9 8h184q10 0 10 -8zM613 696v-299q0 -4 -4 -4h-56q-4 0 -4 4v172l-77 -162q-2 -2 -4 -2h-47q-2 0 -4 2l-83 166v-176q0 -4 -4 -4h-58q-4 0 -4 4v299q0 4 4 4h59q2 0 4 -2
l109 -209l104 209q2 2 4 2h57q4 0 4 -4z" />
    <glyph glyph-name="minus" unicode="&#x2212;" horiz-adv-x="401" 
d="M359 390v-103q0 -7 -10 -7h-329q-10 0 -10 7v103q0 8 10 8h329q10 0 10 -8z" />
    <glyph glyph-name="infinity" unicode="&#x221e;" horiz-adv-x="812" 
d="M549 128h-20q-5 0 -7 2l-121 120l-119 -120q-2 -2 -7 -2h-20q-51 0 -101 25q-105 55 -105 179q0 125 105 180q50 25 101 25h20q5 0 7 -2l119 -120l121 120q2 2 7 2h20q50 0 100 -25q106 -55 106 -180q0 -124 -106 -179q-50 -25 -100 -25zM572 419l-88 -87l88 -87
q8 2 26 11q40 21 40 76q0 57 -40 78q-6 4 -26 9zM320 332l-88 87q-20 -5 -26 -9q-40 -21 -40 -78q0 -55 40 -76q18 -9 26 -11z" />
    <glyph glyph-name="notequal" unicode="&#x2260;" horiz-adv-x="524" 
d="M471 404h-131q-7 -18 -21 -46t-21 -44h173q10 0 10 -8v-105q0 -7 -10 -7h-229l-47 -102q-3 -5 -9 -5h-117q-13 0 -8 11l44 96h-52q-10 0 -10 7v105q0 8 10 8h107l19.5 41t22.5 49h-149q-10 0 -10 8v104q0 8 10 8h205l40 88q2 5 9 5h117q14 0 9 -11l-38 -82h76q10 0 10 -8
v-104q0 -8 -10 -8z" />
    <glyph glyph-name="lozenge" unicode="&#x25ca;" horiz-adv-x="484" 
d="M475 345l-229 -343q-8 -10 -16 0l-228 343q-4 4 0 8l228 343q8 10 16 0l229 -343q4 -4 0 -8zM238 493l-96 -144l96 -146l96 146z" />
    <glyph glyph-name="Y.alt" horiz-adv-x="641" 
d="M4 700h627q7 0 9.5 -4t-1.5 -9l-255 -357v-321q0 -8 -10 -8h-113q-10 0 -10 8v321l-255 357q-4 5 -1.5 9t9.5 4zM317 450l105 149h-209z" />
    <glyph glyph-name="W.alt" horiz-adv-x="997" 
d="M6 700l977 -1q6 0 8.5 -3t0.5 -8l-275 -704q-2 -4 -8.5 -4t-8.5 4l-206 532l-206 -532q-2 -4 -9 -4t-8 4l-274 705q-5 11 9 11zM177 574l102 -274l103 274h-205zM609 578l100 -277l101 277h-201z" />
    <glyph glyph-name="A.alt" horiz-adv-x="683" 
d="M570 583q34 -58 34 -119v-456q0 -8 -10 -8h-114q-10 0 -10 8v116h-265v-116q0 -8 -10 -8h-114q-10 0 -10 8v456q0 60 34 119q68 117 232 117q165 0 233 -117zM205 243h265v220q0 31 -16 57q-33 50 -117 50t-116 -53q-7 -12 -11 -25t-4 -20l-1 -8v-221z" />
    <glyph glyph-name="C.alt" horiz-adv-x="456" 
d="M406 122v-114q0 -8 -9 -8q-146 0 -249 102.5t-103 247.5t103 247.5t249 102.5q9 0 9 -8v-114q0 -8 -9 -8q-91 0 -154.5 -64t-63.5 -156t63.5 -156t154.5 -64q9 0 9 -8z" />
    <glyph glyph-name="A.alt1" horiz-adv-x="554" 
d="M550 0h-547q-6 0 -8.5 3t-0.5 8l273 704q2 5 9 5t9 -5l273 -704q2 -4 -0.5 -7.5t-7.5 -3.5zM381 115l-104 290l-105 -290h209z" />
    <glyph glyph-name="O.011" horiz-adv-x="261" 
d="M183 284h-114q-10 0 -10 8v400q0 8 10 8h114q10 0 10 -8v-400q0 -8 -10 -8zM127 187q39 0 66.5 -28t27.5 -66t-27.5 -66t-66.5 -28q-40 0 -68 27.5t-28 66.5t28 66.5t68 27.5z" />
    <glyph glyph-name="V.001" horiz-adv-x="424" 
d="M426 487l-64 -60q-7 -5 -14 0l-139 134l-140 -134q-7 -5 -14 0l-63 60q-8 6 0 12l210 199q7 6 13 0l211 -199q8 -6 0 -12z" />
    <glyph glyph-name="F.alt" horiz-adv-x="617" 
d="M81 700h456q10 0 10 -8v-114q0 -8 -10 -8h-456q-10 0 -10 8v114q0 8 10 8zM71 8v399q0 8 10 8h456q10 0 10 -8v-114q0 -8 -10 -8h-332v-277q0 -8 -10 -8h-114q-10 0 -10 8z" />
    <glyph glyph-name="D.alt" horiz-adv-x="670" 
d="M81 700h114q41 0 77 -3t79 -12t77.5 -24.5t68.5 -42.5t57 -62.5t37 -88t14 -117.5q0 -86 -26.5 -151t-67 -102t-97.5 -59.5t-108.5 -30t-110.5 -7.5h-114q-10 0 -10 8v684q0 8 10 8zM473 341q0 57 -16.5 101.5t-41 69t-58 40.5t-61.5 21.5t-57 6.5l218 -342q16 50 16 103
zM205 416v-290q6 -1 29 -1q77 0 135 30z" />
    <glyph glyph-name="E.alt" horiz-adv-x="617" 
d="M536 570h-332v-69h332q10 0 10 -8v-108q0 -7 -10 -7h-332v-57h332q10 0 10 -7v-107q0 -8 -10 -8h-332v-69h332q10 0 10 -8v-114q0 -8 -10 -8h-456q-10 0 -10 8v684q0 8 10 8h456q10 0 10 -8v-114q0 -8 -10 -8z" />
    <glyph glyph-name="X.alt" horiz-adv-x="647" 
d="M640 687l-241 -337l241 -336q4 -4 1.5 -8.5t-9.5 -4.5h-628q-7 0 -9.5 4.5t1.5 8.5l241 336l-241 337q-4 5 -1.5 9t9.5 4h628q7 0 9.5 -4t-1.5 -9zM226 580l91 -125l92 125h-183zM414 116l-97 134q-6 -9 -96 -134h193z" />
    <glyph glyph-name="M.alt" horiz-adv-x="740" 
d="M661 692v-458q0 -8 -10 -8h-112q-10 0 -10 8v197l-103 -180q-2 -4 -9 -4h-91q-7 0 -9 4l-113 188v-205q0 -8 -10 -8h-114q-9 0 -9 8v458q0 8 9 8h106q7 0 9 -4l175 -292l167 292q2 4 9 4h105q10 0 10 -8zM661 121v-113q0 -8 -10 -8h-571q-9 0 -9 8v113q0 8 9 8h571
q10 0 10 -8z" />
    <glyph glyph-name="A.alt2" horiz-adv-x="558" 
d="M126 0h-123q-6 0 -8.5 3t-0.5 8l273 684q3 5 9 5t9 -5l273 -684q2 -4 -0.5 -7.5t-7.5 -3.5h-124q-6 0 -8 5l-142 354l-141 -354q-2 -5 -9 -5z" />
    <glyph glyph-name="T.alt" horiz-adv-x="556" 
d="M501 578h-162v-117h162q9 0 9 -7v-104q0 -8 -9 -8h-162v-334q0 -8 -9 -8h-115q-10 0 -10 8v334h-161q-10 0 -10 8v104q0 7 10 7h161v117h-161q-10 0 -10 8v106q0 8 10 8h457q9 0 9 -8v-106q0 -8 -9 -8z" />
    <glyph glyph-name="O.alt" horiz-adv-x="855" 
d="M774 692v-682q0 -8 -10 -8h-682q-10 0 -10 8v682q0 8 10 8h682q10 0 10 -8zM205 571v-440h436v440h-436z" />
    <glyph glyph-name="H.alt" horiz-adv-x="568" 
d="M366 700h113q10 0 10 -8v-456q0 -8 -10 -8h-113q-10 0 -10 8v163h-151v-163q0 -8 -10 -8h-115q-9 0 -9 8v456q0 8 9 8h115q10 0 10 -8v-163h151v163q0 8 10 8zM470 16v98h-380v-98h380z" />
    <glyph glyph-name="O.alt1" horiz-adv-x="817" 
d="M404 700q146 0 249 -102.5t103 -247.5t-103 -247.5t-249 -102.5t-249 102.5t-103 247.5t103 247.5t249 102.5zM404 129q91 0 154.5 64.5t63.5 156.5t-63.5 156t-154.5 64q-90 0 -154 -64.5t-64 -155.5t64 -156t154 -65zM490 350l-86 84l-84 -84l84 -85z" />
    <glyph glyph-name="zero.alt" horiz-adv-x="558" 
d="M272 709q86 0 146.5 -60.5t60.5 -146.5v-306q0 -85 -60.5 -145.5t-146.5 -60.5q-87 0 -148 60.5t-61 145.5v306q0 86 61 146.5t148 60.5zM271 580q-31 0 -53 -22t-22 -53v-219l120 278q-19 16 -45 16zM271 120q31 0 53 22t22 53v214l-119 -275q19 -14 44 -14z" />
    <glyph glyph-name="O.alt2" horiz-adv-x="812" 
d="M403 706q110 0 190.5 -53t118 -132.5t37.5 -172.5q0 -92 -37.5 -171.5t-118 -132.5t-190.5 -53q-84 0 -152 30.5t-110 81.5t-64 114t-22 131q0 69 22 132t64 114t110 81.5t152 30.5zM191 347q0 -78 40 -141.5t114 -82.5v448q-74 -19 -114 -82.5t-40 -141.5zM614 347
q0 77 -39 140t-110 83v-446q71 21 110 83.5t39 139.5z" />
    <glyph glyph-name="S.alt" horiz-adv-x="528" 
d="M257 0q-48 0 -102 22q-54 26 -86 70.5t-35 102.5v37q0 3 3 6l91 83q-94 57 -94 170q0 92 66.5 149.5t156.5 57.5q52 0 106 -23q117 -55 117 -184v-25q0 -3 -3 -6l-90 -83q93 -56 93 -170q0 -92 -66.5 -149.5t-156.5 -57.5zM281 282l-110 -100q7 -26 32 -39.5t54 -13.5
q38 0 64 21t26 57q0 61 -66 75zM167 491q0 -61 67 -75l110 101q-6 24 -36 40q-24 10 -52 10q-38 0 -63.5 -20t-25.5 -56z" />
    <glyph glyph-name="C.alt1" horiz-adv-x="687" 
d="M398 130q91 0 154 65q7 3 14 0l80 -82q7 -5 0 -11q-100 -102 -248 -102q-146 0 -249 102.5t-103 247.5t103 247.5t249 102.5q148 0 248 -103q7 -5 0 -11l-80 -81q-7 -3 -14 0q-63 65 -154 65q-90 0 -154 -64.5t-64 -155.5t64 -155.5t154 -64.5zM493 350q0 41 -28 69.5
t-68 28.5t-68 -28.5t-28 -69.5t28 -69.5t68 -28.5t68 28.5t28 69.5z" />
    <glyph glyph-name="W.alt1" horiz-adv-x="1024" 
d="M415 0h-124q-7 0 -9 5l-285 685q-5 11 9 11h123q7 0 9 -5l215 -516l81 194l-131 316q-5 11 9 11h123q7 0 9 -5l62 -155l62 155q2 5 9 5h124q6 0 8.5 -3t0.5 -8l-132 -316l81 -194l215 516q2 5 9 5h123q14 0 9 -11l-286 -685q-2 -5 -9 -5h-123q-7 0 -9 5l-82 198l-82 -198
q-2 -5 -9 -5z" />
    <glyph glyph-name="O.alt3" horiz-adv-x="745" 
d="M554 252l41 -243q1 -5 -4 -7.5t-11 -0.5l-217 114l-217 -114q-6 -2 -11 0.5t-4 7.5l42 243l-176 172q-5 4 -3 8.5t9 5.5l242 35l109 222q3 5 9 5t9 -5l109 -222l243 -35q6 -1 8 -5.5t-2 -8.5zM312 371l-95 -14l70 -70q3 -1 3 -8l-15 -94q12 7 39.5 21t42.5 23q6 2 12 0
l84 -45q-15 81 -17 95q0 7 3 8l71 70l-96 14q-6 0 -9 6l-42 82l-42 -82q-3 -6 -9 -6z" />
    <glyph glyph-name="N.alt" horiz-adv-x="742" 
d="M538 700h113q10 0 10 -8v-684q0 -8 -10 -8h-115q-6 0 -8 3l-160 230l-164 -230q-2 -3 -8 -3h-115q-9 0 -9 8v684q0 8 9 8h116q7 0 8 -3l323 -461v456q0 8 10 8zM206 222l89 116l-89 127v-243z" />
    <glyph glyph-name="S.alt1" horiz-adv-x="505" 
d="M301 689l-114 -273h295q14 0 9 -11l-167 -399q-2 -5 -8 -5h-124q-5 0 -7.5 3.5t-0.5 7.5l115 273h-296q-6 0 -8.5 3t-0.5 8l166 399q2 5 9 5h123q14 0 9 -11z" />
    <glyph glyph-name="E.alt1" horiz-adv-x="583" 
d="M525 692v-114q0 -8 -9 -8h-457q-10 0 -10 8v114q0 8 10 8h457q9 0 9 -8zM516 0h-457q-10 0 -10 8v114q0 8 10 8h457q9 0 9 -8v-114q0 -8 -9 -8zM525 407v-114q0 -8 -9 -8h-457q-10 0 -10 8v114q0 8 10 8h457q9 0 9 -8z" />
    <glyph glyph-name="H.alt1" horiz-adv-x="681" 
d="M480 700h114q10 0 10 -8v-684q0 -8 -10 -8h-114q-10 0 -10 8v163h-265v-163q0 -8 -10 -8h-114q-10 0 -10 8v684q0 8 10 8h114q10 0 10 -8v-163h265v163q0 8 10 8zM205 301h265v98h-265v-98z" />
    <glyph glyph-name="l.001" horiz-adv-x="561" 
d="M495 235h-291v-106h301q9 0 9 -8v-113q0 -8 -9 -8h-424q-10 0 -10 8v678q0 8 10 8h114q9 0 9 -8v-331h291q10 0 10 -8v-104q0 -8 -10 -8z" />
    <glyph glyph-name="M.alt1" horiz-adv-x="1022" 
d="M596 701h124q7 0 9 -5l286 -685q5 -11 -9 -11h-123q-7 0 -9 5l-215 516l-81 -194l131 -316q5 -11 -9 -11h-123q-7 0 -9 5l-63 148l-61 -148q-2 -5 -9 -5h-124q-6 0 -8.5 3t-0.5 8l132 316l-81 194l-215 -516q-2 -5 -9 -5h-123q-14 0 -9 11l285 685q2 5 9 5h123q7 0 9 -5
l82 -198l82 198q3 5 9 5z" />
    <glyph glyph-name="O.alt4" horiz-adv-x="778" 
d="M375 109q-102 0 -174 71t-72 171q0 8 10 8h47q10 0 10 -8q0 -75 52.5 -127.5t126.5 -52.5t126 52.5t52 127.5q0 8 9 8h47q10 0 10 -8q0 -100 -71.5 -171t-172.5 -71zM375 2q-146 0 -248.5 102.5t-102.5 246.5t102.5 246.5t248.5 102.5q145 0 247.5 -102.5t102.5 -246.5
t-102.5 -246.5t-247.5 -102.5zM375 637q-118 0 -201.5 -84t-83.5 -202t83.5 -201.5t201.5 -83.5q117 0 200 83.5t83 201.5t-83.5 202t-199.5 84zM232 457q0 58 14.5 99t34.5 41t34 -41t14 -99t-14 -99t-34 -41t-34.5 41t-14.5 99zM422 457q0 59 13.5 99.5t34.5 40.5
q19 0 33 -41t14 -99t-14 -99t-33 -41q-21 0 -34.5 40.5t-13.5 99.5z" />
    <glyph glyph-name="O.alt5" horiz-adv-x="819" 
d="M804 347l-197 -343q-2 -4 -9 -4h-396q-7 0 -9 4l-197 343q-2 4 0 8l197 342q2 4 9 4h396q7 0 9 -4l197 -342q2 -4 0 -8zM146 351l128 -222h252l128 222l-128 221h-252z" />
    <glyph glyph-name="A.alt3" horiz-adv-x="558" 
d="M450 283l108 -272q2 -4 -0.5 -7.5t-7.5 -3.5h-124q-6 0 -8 5l-38 112l-48 -112q-2 -5 -8 -5h-96q-7 0 -9 5l-46 112l-38 -112q-2 -5 -9 -5h-123q-6 0 -8.5 3t-0.5 8l273 684q3 5 9 5t9 -5zM276 174l47 106l-47 116l-46 -116z" />
    <glyph glyph-name="A.alt4" horiz-adv-x="624" 
d="M594 692v-114q0 -8 -10 -8h-215l224 -559q5 -11 -9 -11h-123q-7 0 -9 5l-142 354l-140 -354q-2 -5 -9 -5h-123q-14 0 -9 11l224 559h-215q-10 0 -10 8v114q0 8 10 8h546q10 0 10 -8z" />
    <glyph glyph-name="O.alt6" horiz-adv-x="808" 
d="M398 699q146 0 248.5 -102t102.5 -247t-103 -247.5t-248 -102.5q-146 0 -248.5 102.5t-102.5 247.5t102.5 247t248.5 102zM616 350q0 91 -64 155.5t-154 64.5q-54 0 -101 -25l286 -311q33 51 33 116zM179 350q0 -91 64 -155.5t155 -64.5q46 0 87 18l-281 304
q-25 -50 -25 -102z" />
    <glyph glyph-name="O.alt7" horiz-adv-x="1135" 
d="M717 700q146 0 249 -102.5t103 -247.5t-103 -247.5t-249 -102.5q-82 0 -156 36q-74 -36 -157 -36q-146 0 -249 102.5t-103 247.5t103 247.5t249 102.5q83 0 157 -36q74 36 156 36zM622 350q0 87 -61 153q-62 -64 -62 -153q0 -86 62 -153q61 63 61 153zM186 350
q0 -91 64 -155.5t154 -64.5q21 0 37 3q-75 95 -75 217t75 217q-16 3 -37 3q-90 0 -154 -64.5t-64 -155.5zM717 130q90 0 154 64.5t64 155.5t-64 155.5t-154 64.5q-19 0 -37 -3q75 -95 75 -217t-75 -217q18 -3 37 -3z" />
    <glyph glyph-name="I.alt" horiz-adv-x="562" 
d="M525 580h-67v-460h67q10 0 10 -8v-104q0 -8 -10 -8h-495q-10 0 -10 8v104q0 8 10 8h66v460h-66q-10 0 -10 8v104q0 8 10 8h495q10 0 10 -8v-104q0 -8 -10 -8zM325 120v460h-95v-460h95z" />
    <glyph glyph-name="O.009" horiz-adv-x="1022" 
d="M962 571h-47v-441h47q10 0 10 -8v-114q0 -8 -10 -8h-913q-10 0 -10 8v114q0 8 10 8h47v441h-47q-10 0 -10 8v114q0 8 10 8h913q10 0 10 -8v-114q0 -8 -10 -8zM230 130h94v441h-94v-441zM458 130h95v441h-95v-441zM781 130v441h-95v-441h95z" />
    <glyph glyph-name="ampersand.alt" horiz-adv-x="607" 
d="M606 71l-81 -81q-6 -6 -13 0l-74 74q-38 -37 -74.5 -56t-88.5 -19q-109 0 -175.5 72.5t-66.5 172.5q0 79 64 154q-25 25 -41.5 61t-16.5 69q0 73 53 125.5t126 52.5q75 0 128 -52.5t53 -125.5q0 -97 -82 -148l62 -61v96q0 8 10 8h113q10 0 10 -8v-171q0 -20 -6 -52
l100 -100q7 -6 0 -11zM218 577q-23 0 -39.5 -17t-16.5 -42t16.5 -42t39.5 -17q24 0 41 17t17 42t-17 42t-41 17zM272 122q46 0 74 28l-155 154q-27 -29 -27 -73q0 -45 31.5 -77t76.5 -32z" />
    <glyph glyph-name="A.alt5" horiz-adv-x="817" 
d="M518 81l-217 5q-3 -8 -15 -37t-17 -44q-2 -5 -9 -5h-123q-6 0 -8.5 3t-0.5 8l57 144q-70 51 -109.5 128t-39.5 167q0 151 107 257.5t259 106.5t259.5 -106.5t107.5 -257.5q0 -8 -10 -8h-114q-10 0 -10 8q0 93 -61 160t-150 74l268 -673q2 -5 -0.5 -8t-8.5 -3h-123
q-6 0 -9 5zM170 450q0 -94 67 -166l160 400q-95 -2 -161 -70t-66 -164zM402 684h-5q1 3 3 11l9 -11h-7zM341 221q19 -5 44 -7h95l-70 178z" />
    <glyph glyph-name="O.alt8" horiz-adv-x="814" 
d="M401 700q147 0 249.5 -102.5t102.5 -247.5t-102.5 -247t-249.5 -102q-146 0 -248.5 102t-102.5 247t103 247.5t248 102.5zM401 130q91 0 154.5 64.5t63.5 155.5q0 92 -63.5 156t-154.5 64q-90 0 -154 -64.5t-64 -155.5t64 -155.5t154 -64.5zM497 350q0 41 -28 69.5
t-68 28.5q-39 0 -67 -28.5t-28 -69.5q0 -40 28 -69t67 -29q40 0 68 28.5t28 69.5z" />
    <glyph glyph-name="X.alt1" horiz-adv-x="571" 
d="M558 689l-135 -339l135 -339q2 -4 -0.5 -7.5t-7.5 -3.5h-124q-6 0 -8 5l-142 354l-141 -354q-2 -5 -9 -5h-123q-6 0 -8.5 3t-0.5 8l136 339l-136 339q-2 5 0.5 8t8.5 3h113q7 0 9 -5l77 -185l65 185q2 5 8.5 5t9.5 -5l66 -185q10 26 38 92l39 93q2 5 8 5h114
q5 0 7.5 -3.5t0.5 -7.5z" />
    <glyph glyph-name="a.alt" 
d="M415 5l-28 73h-225l-27 -73q-2 -5 -9 -5h-122q-5 0 -7.5 3.5t-0.5 7.5l270 697q2 5 8.5 5t8.5 -5l272 -697q5 -11 -9 -11h-122q-7 0 -9 5zM275 391l-70 -199h139z" />
    </font>
</defs>
</svg>
